M48
; DRILL file {KiCad (5.1.5)-3} date 25/06/2020 17:10:40
; FORMAT={-:-/ absolute / inch / decimal}
; #@! TF.CreationDate,2020-06-25T17:10:40+03:00
; #@! TF.GenerationSoftware,Kicad,Pcbnew,(5.1.5)-3
FMAT,2
INCH
T1C0.0157
T2C0.0276
T3C0.0300
T4C0.0315
T5C0.0354
T6C0.0394
T7C0.0472
T8C0.0488
T9C0.0512
T10C0.1457
%
G90
G05
T1
X6.14Y-2.76
X6.14Y-2.87
X6.19Y-2.76
X6.19Y-2.87
X6.5Y-3.84
X6.5337Y-3.8727
X6.57Y-3.74
X6.5877Y-3.7923
X6.71Y-4.33
X6.71Y-4.57
X6.77Y-5.15
T2
X6.19Y-3.63
X6.19Y-3.83
X5.82Y-5.09
X6.02Y-5.09
X7.58Y-2.63
X7.58Y-2.83
X5.61Y-3.61
X5.61Y-3.81
X7.36Y-2.63
X7.36Y-2.83
X6.19Y-4.03
X6.19Y-4.23
X7.47Y-2.63
X7.47Y-2.83
T3
X6.5906Y-5.14
X6.6694Y-5.14
X6.6617Y-4.5147
X6.7601Y-4.5147
X6.3199Y-5.1053
X6.4183Y-5.1053
X5.7795Y-3.41
X5.7795Y-4.3391
X5.8795Y-3.41
X5.8795Y-4.3391
X5.9795Y-3.41
X5.9795Y-4.3391
X6.0795Y-3.41
X6.0795Y-4.3391
X6.1795Y-3.41
X6.1795Y-4.3391
X6.2795Y-3.41
X6.2795Y-4.3391
X6.3795Y-3.41
X6.3795Y-4.3391
X6.4795Y-3.41
X6.4795Y-4.3391
T4
X4.66Y-3.41
X5.16Y-3.41
X6.38Y-3.99
X6.68Y-3.99
X5.9694Y-4.13
X6.0694Y-4.03
X6.0694Y-4.23
X5.82Y-4.67
X5.82Y-4.97
X5.92Y-4.67
X5.92Y-4.97
X6.02Y-4.67
X6.02Y-4.97
X6.12Y-4.67
X6.12Y-4.97
X6.22Y-4.67
X6.22Y-4.97
X6.32Y-4.67
X6.32Y-4.97
X6.42Y-4.67
X6.42Y-4.97
X6.52Y-4.67
X6.52Y-4.97
X6.62Y-4.67
X6.62Y-4.97
X6.72Y-4.67
X6.72Y-4.97
X6.82Y-4.67
X6.82Y-4.97
X6.92Y-4.67
X6.92Y-4.97
X7.02Y-4.67
X7.02Y-4.97
X7.12Y-4.67
X7.12Y-4.97
X5.97Y-3.73
X6.07Y-3.63
X6.07Y-3.83
X5.2Y-3.61
X5.2Y-3.71
X5.2Y-3.81
X5.5Y-3.61
X5.5Y-3.71
X5.5Y-3.81
X6.28Y-4.2
X6.38Y-4.1
X6.48Y-4.2
X6.38Y-3.87
X6.68Y-3.87
T5
X5.86Y-3.53
X5.86Y-3.83
X4.71Y-3.59
X5.01Y-3.59
X4.71Y-3.78
X5.01Y-3.78
X5.8594Y-3.93
X5.8594Y-4.23
T6
X7.1Y-2.29
X7.1Y-2.39
X7.1Y-2.49
X7.1Y-2.59
X7.29Y-4.67
X7.29Y-4.77
X7.39Y-4.67
X7.39Y-4.77
X7.49Y-4.67
X7.49Y-4.77
T7
X7.115Y-3.06
X7.17Y-3.485
X7.1125Y-4.385
T8
X4.8299Y-2.3431
X4.8299Y-3.1619
X6.6016Y-2.847
X6.6016Y-3.1619
T9
X4.42Y-4.25
X4.42Y-4.45
X7.315Y-3.06
X7.515Y-3.06
X4.42Y-3.76
X4.42Y-3.96
X4.8023Y-4.6
X4.9023Y-4.9
X5.1023Y-4.6
X5.5023Y-4.6
X5.5023Y-4.9
X7.17Y-3.685
X7.17Y-3.885
X4.8023Y-4.08
X4.9023Y-4.38
X5.1023Y-4.08
X5.5023Y-4.08
X5.5023Y-4.38
X7.3125Y-4.385
X7.5125Y-4.385
X4.42Y-2.98
X4.42Y-3.18
T10
X7.431Y-5.0537
X7.431Y-2.3765
X4.4389Y-5.0537
X4.4389Y-2.3765
T0
M30
