G04 #@! TF.GenerationSoftware,KiCad,Pcbnew,(5.1.5)-3*
G04 #@! TF.CreationDate,2020-06-25T17:10:35+03:00*
G04 #@! TF.ProjectId,genv01_2,67656e76-3031-45f3-922e-6b696361645f,rev?*
G04 #@! TF.SameCoordinates,Original*
G04 #@! TF.FileFunction,Profile,NP*
%FSLAX46Y46*%
G04 Gerber Fmt 4.6, Leading zero omitted, Abs format (unit mm)*
G04 Created by KiCad (PCBNEW (5.1.5)-3) date 2020-06-25 17:10:35*
%MOMM*%
%LPD*%
G04 APERTURE LIST*
G04 #@! TA.AperFunction,Profile*
%ADD10C,0.050000*%
G04 #@! TD*
G04 APERTURE END LIST*
D10*
X110744000Y-54864000D02*
X190754000Y-54864000D01*
X110744000Y-133858000D02*
G75*
G02X107188000Y-130302000I0J3556000D01*
G01*
X107188000Y-130302000D02*
X107188000Y-116332000D01*
X107188000Y-58420000D02*
G75*
G02X110744000Y-54864000I3556000J0D01*
G01*
X194310000Y-72390000D02*
X194310000Y-58420000D01*
X105918000Y-115062000D02*
G75*
G02X101346000Y-110490000I0J4572000D01*
G01*
X200152000Y-110490000D02*
G75*
G02X195580000Y-115062000I-4572000J0D01*
G01*
X190754000Y-54864000D02*
G75*
G02X194310000Y-58420000I0J-3556000D01*
G01*
X194310000Y-116332000D02*
X194310000Y-130302000D01*
X190754000Y-133858000D02*
X110744000Y-133858000D01*
X105918000Y-115062000D02*
G75*
G02X107188000Y-116332000I0J-1270000D01*
G01*
X194310000Y-130302000D02*
G75*
G02X190754000Y-133858000I-3556000J0D01*
G01*
X107188000Y-72390000D02*
X107188000Y-58420000D01*
X107188000Y-72390000D02*
G75*
G02X105918000Y-73660000I-1270000J0D01*
G01*
X195580000Y-73660000D02*
G75*
G02X194310000Y-72390000I0J1270000D01*
G01*
X194310000Y-116332000D02*
G75*
G02X195580000Y-115062000I1270000J0D01*
G01*
X101346000Y-78232000D02*
G75*
G02X105918000Y-73660000I4572000J0D01*
G01*
X200152000Y-78232000D02*
X200152000Y-110490000D01*
X101346000Y-78232000D02*
X101346000Y-110490000D01*
X195580000Y-73660000D02*
G75*
G02X200152000Y-78232000I0J-4572000D01*
G01*
M02*
