G04 #@! TF.GenerationSoftware,KiCad,Pcbnew,(5.1.5)-3*
G04 #@! TF.CreationDate,2020-06-25T17:10:35+03:00*
G04 #@! TF.ProjectId,genv01_2,67656e76-3031-45f3-922e-6b696361645f,rev?*
G04 #@! TF.SameCoordinates,Original*
G04 #@! TF.FileFunction,Soldermask,Top*
G04 #@! TF.FilePolarity,Negative*
%FSLAX46Y46*%
G04 Gerber Fmt 4.6, Leading zero omitted, Abs format (unit mm)*
G04 Created by KiCad (PCBNEW (5.1.5)-3) date 2020-06-25 17:10:35*
%MOMM*%
%LPD*%
G04 APERTURE LIST*
G04 #@! TA.AperFunction,Profile*
%ADD10C,0.050000*%
G04 #@! TD*
%ADD11C,0.150000*%
G04 APERTURE END LIST*
D10*
X110744000Y-54864000D02*
X190754000Y-54864000D01*
X110744000Y-133858000D02*
G75*
G02X107188000Y-130302000I0J3556000D01*
G01*
X107188000Y-130302000D02*
X107188000Y-116332000D01*
X107188000Y-58420000D02*
G75*
G02X110744000Y-54864000I3556000J0D01*
G01*
X194310000Y-72390000D02*
X194310000Y-58420000D01*
X105918000Y-115062000D02*
G75*
G02X101346000Y-110490000I0J4572000D01*
G01*
X200152000Y-110490000D02*
G75*
G02X195580000Y-115062000I-4572000J0D01*
G01*
X190754000Y-54864000D02*
G75*
G02X194310000Y-58420000I0J-3556000D01*
G01*
X194310000Y-116332000D02*
X194310000Y-130302000D01*
X190754000Y-133858000D02*
X110744000Y-133858000D01*
X105918000Y-115062000D02*
G75*
G02X107188000Y-116332000I0J-1270000D01*
G01*
X194310000Y-130302000D02*
G75*
G02X190754000Y-133858000I-3556000J0D01*
G01*
X107188000Y-72390000D02*
X107188000Y-58420000D01*
X107188000Y-72390000D02*
G75*
G02X105918000Y-73660000I-1270000J0D01*
G01*
X195580000Y-73660000D02*
G75*
G02X194310000Y-72390000I0J1270000D01*
G01*
X194310000Y-116332000D02*
G75*
G02X195580000Y-115062000I1270000J0D01*
G01*
X101346000Y-78232000D02*
G75*
G02X105918000Y-73660000I4572000J0D01*
G01*
X200152000Y-78232000D02*
X200152000Y-110490000D01*
X101346000Y-78232000D02*
X101346000Y-110490000D01*
X195580000Y-73660000D02*
G75*
G02X200152000Y-78232000I0J-4572000D01*
G01*
D11*
G36*
X169639142Y-129774242D02*
G01*
X169787101Y-129835529D01*
X169920255Y-129924499D01*
X170033501Y-130037745D01*
X170122471Y-130170899D01*
X170183758Y-130318858D01*
X170215000Y-130475925D01*
X170215000Y-130636075D01*
X170183758Y-130793142D01*
X170122471Y-130941101D01*
X170033501Y-131074255D01*
X169920255Y-131187501D01*
X169787101Y-131276471D01*
X169639142Y-131337758D01*
X169482075Y-131369000D01*
X169321925Y-131369000D01*
X169164858Y-131337758D01*
X169016899Y-131276471D01*
X168883745Y-131187501D01*
X168770499Y-131074255D01*
X168681529Y-130941101D01*
X168620242Y-130793142D01*
X168589000Y-130636075D01*
X168589000Y-130475925D01*
X168620242Y-130318858D01*
X168681529Y-130170899D01*
X168770499Y-130037745D01*
X168883745Y-129924499D01*
X169016899Y-129835529D01*
X169164858Y-129774242D01*
X169321925Y-129743000D01*
X169482075Y-129743000D01*
X169639142Y-129774242D01*
G37*
G36*
X167639142Y-129774242D02*
G01*
X167787101Y-129835529D01*
X167920255Y-129924499D01*
X168033501Y-130037745D01*
X168122471Y-130170899D01*
X168183758Y-130318858D01*
X168215000Y-130475925D01*
X168215000Y-130636075D01*
X168183758Y-130793142D01*
X168122471Y-130941101D01*
X168033501Y-131074255D01*
X167920255Y-131187501D01*
X167787101Y-131276471D01*
X167639142Y-131337758D01*
X167482075Y-131369000D01*
X167321925Y-131369000D01*
X167164858Y-131337758D01*
X167016899Y-131276471D01*
X166883745Y-131187501D01*
X166770499Y-131074255D01*
X166681529Y-130941101D01*
X166620242Y-130793142D01*
X166589000Y-130636075D01*
X166589000Y-130475925D01*
X166620242Y-130318858D01*
X166681529Y-130170899D01*
X166770499Y-130037745D01*
X166883745Y-129924499D01*
X167016899Y-129835529D01*
X167164858Y-129774242D01*
X167321925Y-129743000D01*
X167482075Y-129743000D01*
X167639142Y-129774242D01*
G37*
G36*
X163263142Y-128892242D02*
G01*
X163411101Y-128953529D01*
X163544255Y-129042499D01*
X163657501Y-129155745D01*
X163746471Y-129288899D01*
X163807758Y-129436858D01*
X163839000Y-129593925D01*
X163839000Y-129754075D01*
X163807758Y-129911142D01*
X163746471Y-130059101D01*
X163657501Y-130192255D01*
X163544255Y-130305501D01*
X163411101Y-130394471D01*
X163263142Y-130455758D01*
X163106075Y-130487000D01*
X162945925Y-130487000D01*
X162788858Y-130455758D01*
X162640899Y-130394471D01*
X162507745Y-130305501D01*
X162394499Y-130192255D01*
X162305529Y-130059101D01*
X162244242Y-129911142D01*
X162213000Y-129754075D01*
X162213000Y-129593925D01*
X162244242Y-129436858D01*
X162305529Y-129288899D01*
X162394499Y-129155745D01*
X162507745Y-129042499D01*
X162640899Y-128953529D01*
X162788858Y-128892242D01*
X162945925Y-128861000D01*
X163106075Y-128861000D01*
X163263142Y-128892242D01*
G37*
G36*
X160763142Y-128892242D02*
G01*
X160911101Y-128953529D01*
X161044255Y-129042499D01*
X161157501Y-129155745D01*
X161246471Y-129288899D01*
X161307758Y-129436858D01*
X161339000Y-129593925D01*
X161339000Y-129754075D01*
X161307758Y-129911142D01*
X161246471Y-130059101D01*
X161157501Y-130192255D01*
X161044255Y-130305501D01*
X160911101Y-130394471D01*
X160763142Y-130455758D01*
X160606075Y-130487000D01*
X160445925Y-130487000D01*
X160288858Y-130455758D01*
X160140899Y-130394471D01*
X160007745Y-130305501D01*
X159894499Y-130192255D01*
X159805529Y-130059101D01*
X159744242Y-129911142D01*
X159713000Y-129754075D01*
X159713000Y-129593925D01*
X159744242Y-129436858D01*
X159805529Y-129288899D01*
X159894499Y-129155745D01*
X160007745Y-129042499D01*
X160140899Y-128953529D01*
X160288858Y-128892242D01*
X160445925Y-128861000D01*
X160606075Y-128861000D01*
X160763142Y-128892242D01*
G37*
G36*
X113052008Y-126486228D02*
G01*
X113302501Y-126536054D01*
X113648461Y-126679356D01*
X113959817Y-126887397D01*
X114224603Y-127152183D01*
X114432644Y-127463539D01*
X114575946Y-127809499D01*
X114649000Y-128176768D01*
X114649000Y-128551232D01*
X114587384Y-128861000D01*
X114575946Y-128918500D01*
X114454361Y-129212033D01*
X114432644Y-129264461D01*
X114224603Y-129575817D01*
X113959817Y-129840603D01*
X113648461Y-130048644D01*
X113302501Y-130191946D01*
X112935233Y-130265000D01*
X112560767Y-130265000D01*
X112193499Y-130191946D01*
X111847539Y-130048644D01*
X111536183Y-129840603D01*
X111271397Y-129575817D01*
X111063356Y-129264461D01*
X111041640Y-129212033D01*
X110920054Y-128918500D01*
X110908617Y-128861000D01*
X110847000Y-128551232D01*
X110847000Y-128176768D01*
X110920054Y-127809499D01*
X111063356Y-127463539D01*
X111271397Y-127152183D01*
X111536183Y-126887397D01*
X111847539Y-126679356D01*
X112193499Y-126536054D01*
X112443992Y-126486228D01*
X112560767Y-126463000D01*
X112935233Y-126463000D01*
X113052008Y-126486228D01*
G37*
G36*
X189052008Y-126486228D02*
G01*
X189302501Y-126536054D01*
X189648461Y-126679356D01*
X189959817Y-126887397D01*
X190224603Y-127152183D01*
X190432644Y-127463539D01*
X190575946Y-127809499D01*
X190649000Y-128176768D01*
X190649000Y-128551232D01*
X190587384Y-128861000D01*
X190575946Y-128918500D01*
X190454361Y-129212033D01*
X190432644Y-129264461D01*
X190224603Y-129575817D01*
X189959817Y-129840603D01*
X189648461Y-130048644D01*
X189302501Y-130191946D01*
X188935233Y-130265000D01*
X188560767Y-130265000D01*
X188193499Y-130191946D01*
X187847539Y-130048644D01*
X187536183Y-129840603D01*
X187271397Y-129575817D01*
X187063356Y-129264461D01*
X187041640Y-129212033D01*
X186920054Y-128918500D01*
X186908617Y-128861000D01*
X186847000Y-128551232D01*
X186847000Y-128176768D01*
X186920054Y-127809499D01*
X187063356Y-127463539D01*
X187271397Y-127152183D01*
X187536183Y-126887397D01*
X187847539Y-126679356D01*
X188193499Y-126536054D01*
X188443992Y-126486228D01*
X188560767Y-126463000D01*
X188935233Y-126463000D01*
X189052008Y-126486228D01*
G37*
G36*
X148047059Y-128563860D02*
G01*
X148183732Y-128620472D01*
X148306735Y-128702660D01*
X148411340Y-128807265D01*
X148493528Y-128930268D01*
X148493529Y-128930270D01*
X148550140Y-129066941D01*
X148567804Y-129155743D01*
X148579000Y-129212033D01*
X148579000Y-129359967D01*
X148550140Y-129505059D01*
X148493528Y-129641732D01*
X148411340Y-129764735D01*
X148306735Y-129869340D01*
X148183732Y-129951528D01*
X148183731Y-129951529D01*
X148183730Y-129951529D01*
X148047059Y-130008140D01*
X147901968Y-130037000D01*
X147754032Y-130037000D01*
X147608941Y-130008140D01*
X147472270Y-129951529D01*
X147472269Y-129951529D01*
X147472268Y-129951528D01*
X147349265Y-129869340D01*
X147244660Y-129764735D01*
X147162472Y-129641732D01*
X147105860Y-129505059D01*
X147077000Y-129359967D01*
X147077000Y-129212033D01*
X147088197Y-129155743D01*
X147105860Y-129066941D01*
X147162471Y-128930270D01*
X147162472Y-128930268D01*
X147244660Y-128807265D01*
X147349265Y-128702660D01*
X147472268Y-128620472D01*
X147608941Y-128563860D01*
X147754032Y-128535000D01*
X147901968Y-128535000D01*
X148047059Y-128563860D01*
G37*
G36*
X153127059Y-128563860D02*
G01*
X153263732Y-128620472D01*
X153386735Y-128702660D01*
X153491340Y-128807265D01*
X153573528Y-128930268D01*
X153573529Y-128930270D01*
X153630140Y-129066941D01*
X153647804Y-129155743D01*
X153659000Y-129212033D01*
X153659000Y-129359967D01*
X153630140Y-129505059D01*
X153573528Y-129641732D01*
X153491340Y-129764735D01*
X153386735Y-129869340D01*
X153263732Y-129951528D01*
X153263731Y-129951529D01*
X153263730Y-129951529D01*
X153127059Y-130008140D01*
X152981968Y-130037000D01*
X152834032Y-130037000D01*
X152688941Y-130008140D01*
X152552270Y-129951529D01*
X152552269Y-129951529D01*
X152552268Y-129951528D01*
X152429265Y-129869340D01*
X152324660Y-129764735D01*
X152242472Y-129641732D01*
X152185860Y-129505059D01*
X152157000Y-129359967D01*
X152157000Y-129212033D01*
X152168197Y-129155743D01*
X152185860Y-129066941D01*
X152242471Y-128930270D01*
X152242472Y-128930268D01*
X152324660Y-128807265D01*
X152429265Y-128702660D01*
X152552268Y-128620472D01*
X152688941Y-128563860D01*
X152834032Y-128535000D01*
X152981968Y-128535000D01*
X153127059Y-128563860D01*
G37*
G36*
X155696228Y-125419703D02*
G01*
X155851100Y-125483853D01*
X155990481Y-125576985D01*
X156109015Y-125695519D01*
X156202147Y-125834900D01*
X156266297Y-125989772D01*
X156299000Y-126154184D01*
X156299000Y-126321816D01*
X156266297Y-126486228D01*
X156202147Y-126641100D01*
X156109015Y-126780481D01*
X155990481Y-126899015D01*
X155851100Y-126992147D01*
X155696228Y-127056297D01*
X155531816Y-127089000D01*
X155364184Y-127089000D01*
X155199772Y-127056297D01*
X155044900Y-126992147D01*
X154905519Y-126899015D01*
X154786985Y-126780481D01*
X154693853Y-126641100D01*
X154629703Y-126486228D01*
X154597000Y-126321816D01*
X154597000Y-126154184D01*
X154629703Y-125989772D01*
X154693853Y-125834900D01*
X154786985Y-125695519D01*
X154905519Y-125576985D01*
X155044900Y-125483853D01*
X155199772Y-125419703D01*
X155364184Y-125387000D01*
X155531816Y-125387000D01*
X155696228Y-125419703D01*
G37*
G36*
X150616228Y-125419703D02*
G01*
X150771100Y-125483853D01*
X150910481Y-125576985D01*
X151029015Y-125695519D01*
X151122147Y-125834900D01*
X151186297Y-125989772D01*
X151219000Y-126154184D01*
X151219000Y-126321816D01*
X151186297Y-126486228D01*
X151122147Y-126641100D01*
X151029015Y-126780481D01*
X150910481Y-126899015D01*
X150771100Y-126992147D01*
X150616228Y-127056297D01*
X150451816Y-127089000D01*
X150284184Y-127089000D01*
X150119772Y-127056297D01*
X149964900Y-126992147D01*
X149825519Y-126899015D01*
X149706985Y-126780481D01*
X149613853Y-126641100D01*
X149549703Y-126486228D01*
X149517000Y-126321816D01*
X149517000Y-126154184D01*
X149549703Y-125989772D01*
X149613853Y-125834900D01*
X149706985Y-125695519D01*
X149825519Y-125576985D01*
X149964900Y-125483853D01*
X150119772Y-125419703D01*
X150284184Y-125387000D01*
X150451816Y-125387000D01*
X150616228Y-125419703D01*
G37*
G36*
X153156228Y-125419703D02*
G01*
X153311100Y-125483853D01*
X153450481Y-125576985D01*
X153569015Y-125695519D01*
X153662147Y-125834900D01*
X153726297Y-125989772D01*
X153759000Y-126154184D01*
X153759000Y-126321816D01*
X153726297Y-126486228D01*
X153662147Y-126641100D01*
X153569015Y-126780481D01*
X153450481Y-126899015D01*
X153311100Y-126992147D01*
X153156228Y-127056297D01*
X152991816Y-127089000D01*
X152824184Y-127089000D01*
X152659772Y-127056297D01*
X152504900Y-126992147D01*
X152365519Y-126899015D01*
X152246985Y-126780481D01*
X152153853Y-126641100D01*
X152089703Y-126486228D01*
X152057000Y-126321816D01*
X152057000Y-126154184D01*
X152089703Y-125989772D01*
X152153853Y-125834900D01*
X152246985Y-125695519D01*
X152365519Y-125576985D01*
X152504900Y-125483853D01*
X152659772Y-125419703D01*
X152824184Y-125387000D01*
X152991816Y-125387000D01*
X153156228Y-125419703D01*
G37*
G36*
X158236228Y-125419703D02*
G01*
X158391100Y-125483853D01*
X158530481Y-125576985D01*
X158649015Y-125695519D01*
X158742147Y-125834900D01*
X158806297Y-125989772D01*
X158839000Y-126154184D01*
X158839000Y-126321816D01*
X158806297Y-126486228D01*
X158742147Y-126641100D01*
X158649015Y-126780481D01*
X158530481Y-126899015D01*
X158391100Y-126992147D01*
X158236228Y-127056297D01*
X158071816Y-127089000D01*
X157904184Y-127089000D01*
X157739772Y-127056297D01*
X157584900Y-126992147D01*
X157445519Y-126899015D01*
X157326985Y-126780481D01*
X157233853Y-126641100D01*
X157169703Y-126486228D01*
X157137000Y-126321816D01*
X157137000Y-126154184D01*
X157169703Y-125989772D01*
X157233853Y-125834900D01*
X157326985Y-125695519D01*
X157445519Y-125576985D01*
X157584900Y-125483853D01*
X157739772Y-125419703D01*
X157904184Y-125387000D01*
X158071816Y-125387000D01*
X158236228Y-125419703D01*
G37*
G36*
X160776228Y-125419703D02*
G01*
X160931100Y-125483853D01*
X161070481Y-125576985D01*
X161189015Y-125695519D01*
X161282147Y-125834900D01*
X161346297Y-125989772D01*
X161379000Y-126154184D01*
X161379000Y-126321816D01*
X161346297Y-126486228D01*
X161282147Y-126641100D01*
X161189015Y-126780481D01*
X161070481Y-126899015D01*
X160931100Y-126992147D01*
X160776228Y-127056297D01*
X160611816Y-127089000D01*
X160444184Y-127089000D01*
X160279772Y-127056297D01*
X160124900Y-126992147D01*
X159985519Y-126899015D01*
X159866985Y-126780481D01*
X159773853Y-126641100D01*
X159709703Y-126486228D01*
X159677000Y-126321816D01*
X159677000Y-126154184D01*
X159709703Y-125989772D01*
X159773853Y-125834900D01*
X159866985Y-125695519D01*
X159985519Y-125576985D01*
X160124900Y-125483853D01*
X160279772Y-125419703D01*
X160444184Y-125387000D01*
X160611816Y-125387000D01*
X160776228Y-125419703D01*
G37*
G36*
X163316228Y-125419703D02*
G01*
X163471100Y-125483853D01*
X163610481Y-125576985D01*
X163729015Y-125695519D01*
X163822147Y-125834900D01*
X163886297Y-125989772D01*
X163919000Y-126154184D01*
X163919000Y-126321816D01*
X163886297Y-126486228D01*
X163822147Y-126641100D01*
X163729015Y-126780481D01*
X163610481Y-126899015D01*
X163471100Y-126992147D01*
X163316228Y-127056297D01*
X163151816Y-127089000D01*
X162984184Y-127089000D01*
X162819772Y-127056297D01*
X162664900Y-126992147D01*
X162525519Y-126899015D01*
X162406985Y-126780481D01*
X162313853Y-126641100D01*
X162249703Y-126486228D01*
X162217000Y-126321816D01*
X162217000Y-126154184D01*
X162249703Y-125989772D01*
X162313853Y-125834900D01*
X162406985Y-125695519D01*
X162525519Y-125576985D01*
X162664900Y-125483853D01*
X162819772Y-125419703D01*
X162984184Y-125387000D01*
X163151816Y-125387000D01*
X163316228Y-125419703D01*
G37*
G36*
X165856228Y-125419703D02*
G01*
X166011100Y-125483853D01*
X166150481Y-125576985D01*
X166269015Y-125695519D01*
X166362147Y-125834900D01*
X166426297Y-125989772D01*
X166459000Y-126154184D01*
X166459000Y-126321816D01*
X166426297Y-126486228D01*
X166362147Y-126641100D01*
X166269015Y-126780481D01*
X166150481Y-126899015D01*
X166011100Y-126992147D01*
X165856228Y-127056297D01*
X165691816Y-127089000D01*
X165524184Y-127089000D01*
X165359772Y-127056297D01*
X165204900Y-126992147D01*
X165065519Y-126899015D01*
X164946985Y-126780481D01*
X164853853Y-126641100D01*
X164789703Y-126486228D01*
X164757000Y-126321816D01*
X164757000Y-126154184D01*
X164789703Y-125989772D01*
X164853853Y-125834900D01*
X164946985Y-125695519D01*
X165065519Y-125576985D01*
X165204900Y-125483853D01*
X165359772Y-125419703D01*
X165524184Y-125387000D01*
X165691816Y-125387000D01*
X165856228Y-125419703D01*
G37*
G36*
X170936228Y-125419703D02*
G01*
X171091100Y-125483853D01*
X171230481Y-125576985D01*
X171349015Y-125695519D01*
X171442147Y-125834900D01*
X171506297Y-125989772D01*
X171539000Y-126154184D01*
X171539000Y-126321816D01*
X171506297Y-126486228D01*
X171442147Y-126641100D01*
X171349015Y-126780481D01*
X171230481Y-126899015D01*
X171091100Y-126992147D01*
X170936228Y-127056297D01*
X170771816Y-127089000D01*
X170604184Y-127089000D01*
X170439772Y-127056297D01*
X170284900Y-126992147D01*
X170145519Y-126899015D01*
X170026985Y-126780481D01*
X169933853Y-126641100D01*
X169869703Y-126486228D01*
X169837000Y-126321816D01*
X169837000Y-126154184D01*
X169869703Y-125989772D01*
X169933853Y-125834900D01*
X170026985Y-125695519D01*
X170145519Y-125576985D01*
X170284900Y-125483853D01*
X170439772Y-125419703D01*
X170604184Y-125387000D01*
X170771816Y-125387000D01*
X170936228Y-125419703D01*
G37*
G36*
X173476228Y-125419703D02*
G01*
X173631100Y-125483853D01*
X173770481Y-125576985D01*
X173889015Y-125695519D01*
X173982147Y-125834900D01*
X174046297Y-125989772D01*
X174079000Y-126154184D01*
X174079000Y-126321816D01*
X174046297Y-126486228D01*
X173982147Y-126641100D01*
X173889015Y-126780481D01*
X173770481Y-126899015D01*
X173631100Y-126992147D01*
X173476228Y-127056297D01*
X173311816Y-127089000D01*
X173144184Y-127089000D01*
X172979772Y-127056297D01*
X172824900Y-126992147D01*
X172685519Y-126899015D01*
X172566985Y-126780481D01*
X172473853Y-126641100D01*
X172409703Y-126486228D01*
X172377000Y-126321816D01*
X172377000Y-126154184D01*
X172409703Y-125989772D01*
X172473853Y-125834900D01*
X172566985Y-125695519D01*
X172685519Y-125576985D01*
X172824900Y-125483853D01*
X172979772Y-125419703D01*
X173144184Y-125387000D01*
X173311816Y-125387000D01*
X173476228Y-125419703D01*
G37*
G36*
X176016228Y-125419703D02*
G01*
X176171100Y-125483853D01*
X176310481Y-125576985D01*
X176429015Y-125695519D01*
X176522147Y-125834900D01*
X176586297Y-125989772D01*
X176619000Y-126154184D01*
X176619000Y-126321816D01*
X176586297Y-126486228D01*
X176522147Y-126641100D01*
X176429015Y-126780481D01*
X176310481Y-126899015D01*
X176171100Y-126992147D01*
X176016228Y-127056297D01*
X175851816Y-127089000D01*
X175684184Y-127089000D01*
X175519772Y-127056297D01*
X175364900Y-126992147D01*
X175225519Y-126899015D01*
X175106985Y-126780481D01*
X175013853Y-126641100D01*
X174949703Y-126486228D01*
X174917000Y-126321816D01*
X174917000Y-126154184D01*
X174949703Y-125989772D01*
X175013853Y-125834900D01*
X175106985Y-125695519D01*
X175225519Y-125576985D01*
X175364900Y-125483853D01*
X175519772Y-125419703D01*
X175684184Y-125387000D01*
X175851816Y-125387000D01*
X176016228Y-125419703D01*
G37*
G36*
X148679000Y-127089000D02*
G01*
X146977000Y-127089000D01*
X146977000Y-125387000D01*
X148679000Y-125387000D01*
X148679000Y-127089000D01*
G37*
G36*
X178556228Y-125419703D02*
G01*
X178711100Y-125483853D01*
X178850481Y-125576985D01*
X178969015Y-125695519D01*
X179062147Y-125834900D01*
X179126297Y-125989772D01*
X179159000Y-126154184D01*
X179159000Y-126321816D01*
X179126297Y-126486228D01*
X179062147Y-126641100D01*
X178969015Y-126780481D01*
X178850481Y-126899015D01*
X178711100Y-126992147D01*
X178556228Y-127056297D01*
X178391816Y-127089000D01*
X178224184Y-127089000D01*
X178059772Y-127056297D01*
X177904900Y-126992147D01*
X177765519Y-126899015D01*
X177646985Y-126780481D01*
X177553853Y-126641100D01*
X177489703Y-126486228D01*
X177457000Y-126321816D01*
X177457000Y-126154184D01*
X177489703Y-125989772D01*
X177553853Y-125834900D01*
X177646985Y-125695519D01*
X177765519Y-125576985D01*
X177904900Y-125483853D01*
X178059772Y-125419703D01*
X178224184Y-125387000D01*
X178391816Y-125387000D01*
X178556228Y-125419703D01*
G37*
G36*
X181096228Y-125419703D02*
G01*
X181251100Y-125483853D01*
X181390481Y-125576985D01*
X181509015Y-125695519D01*
X181602147Y-125834900D01*
X181666297Y-125989772D01*
X181699000Y-126154184D01*
X181699000Y-126321816D01*
X181666297Y-126486228D01*
X181602147Y-126641100D01*
X181509015Y-126780481D01*
X181390481Y-126899015D01*
X181251100Y-126992147D01*
X181096228Y-127056297D01*
X180931816Y-127089000D01*
X180764184Y-127089000D01*
X180599772Y-127056297D01*
X180444900Y-126992147D01*
X180305519Y-126899015D01*
X180186985Y-126780481D01*
X180093853Y-126641100D01*
X180029703Y-126486228D01*
X179997000Y-126321816D01*
X179997000Y-126154184D01*
X180029703Y-125989772D01*
X180093853Y-125834900D01*
X180186985Y-125695519D01*
X180305519Y-125576985D01*
X180444900Y-125483853D01*
X180599772Y-125419703D01*
X180764184Y-125387000D01*
X180931816Y-125387000D01*
X181096228Y-125419703D01*
G37*
G36*
X168396228Y-125419703D02*
G01*
X168551100Y-125483853D01*
X168690481Y-125576985D01*
X168809015Y-125695519D01*
X168902147Y-125834900D01*
X168966297Y-125989772D01*
X168999000Y-126154184D01*
X168999000Y-126321816D01*
X168966297Y-126486228D01*
X168902147Y-126641100D01*
X168809015Y-126780481D01*
X168690481Y-126899015D01*
X168551100Y-126992147D01*
X168396228Y-127056297D01*
X168231816Y-127089000D01*
X168064184Y-127089000D01*
X167899772Y-127056297D01*
X167744900Y-126992147D01*
X167605519Y-126899015D01*
X167486985Y-126780481D01*
X167393853Y-126641100D01*
X167329703Y-126486228D01*
X167297000Y-126321816D01*
X167297000Y-126154184D01*
X167329703Y-125989772D01*
X167393853Y-125834900D01*
X167486985Y-125695519D01*
X167605519Y-125576985D01*
X167744900Y-125483853D01*
X167899772Y-125419703D01*
X168064184Y-125387000D01*
X168231816Y-125387000D01*
X168396228Y-125419703D01*
G37*
G36*
X124817272Y-123473428D02*
G01*
X125003991Y-123550770D01*
X125003993Y-123550771D01*
X125172037Y-123663054D01*
X125314946Y-123805963D01*
X125427229Y-123974007D01*
X125427230Y-123974009D01*
X125504572Y-124160728D01*
X125544000Y-124358947D01*
X125544000Y-124561053D01*
X125504572Y-124759272D01*
X125427230Y-124945991D01*
X125427229Y-124945993D01*
X125314946Y-125114037D01*
X125172037Y-125256946D01*
X125003993Y-125369229D01*
X125003992Y-125369230D01*
X125003991Y-125369230D01*
X124817272Y-125446572D01*
X124619053Y-125486000D01*
X124416947Y-125486000D01*
X124218728Y-125446572D01*
X124032009Y-125369230D01*
X124032008Y-125369230D01*
X124032007Y-125369229D01*
X123863963Y-125256946D01*
X123721054Y-125114037D01*
X123608771Y-124945993D01*
X123608770Y-124945991D01*
X123531428Y-124759272D01*
X123492000Y-124561053D01*
X123492000Y-124358947D01*
X123531428Y-124160728D01*
X123608770Y-123974009D01*
X123608771Y-123974007D01*
X123721054Y-123805963D01*
X123863963Y-123663054D01*
X124032007Y-123550771D01*
X124032009Y-123550770D01*
X124218728Y-123473428D01*
X124416947Y-123434000D01*
X124619053Y-123434000D01*
X124817272Y-123473428D01*
G37*
G36*
X140057272Y-123473428D02*
G01*
X140243991Y-123550770D01*
X140243993Y-123550771D01*
X140412037Y-123663054D01*
X140554946Y-123805963D01*
X140667229Y-123974007D01*
X140667230Y-123974009D01*
X140744572Y-124160728D01*
X140784000Y-124358947D01*
X140784000Y-124561053D01*
X140744572Y-124759272D01*
X140667230Y-124945991D01*
X140667229Y-124945993D01*
X140554946Y-125114037D01*
X140412037Y-125256946D01*
X140243993Y-125369229D01*
X140243992Y-125369230D01*
X140243991Y-125369230D01*
X140057272Y-125446572D01*
X139859053Y-125486000D01*
X139656947Y-125486000D01*
X139458728Y-125446572D01*
X139272009Y-125369230D01*
X139272008Y-125369230D01*
X139272007Y-125369229D01*
X139103963Y-125256946D01*
X138961054Y-125114037D01*
X138848771Y-124945993D01*
X138848770Y-124945991D01*
X138771428Y-124759272D01*
X138732000Y-124561053D01*
X138732000Y-124358947D01*
X138771428Y-124160728D01*
X138848770Y-123974009D01*
X138848771Y-123974007D01*
X138961054Y-123805963D01*
X139103963Y-123663054D01*
X139272007Y-123550771D01*
X139272009Y-123550770D01*
X139458728Y-123473428D01*
X139656947Y-123434000D01*
X139859053Y-123434000D01*
X140057272Y-123473428D01*
G37*
G36*
X190359512Y-120261927D02*
G01*
X190508812Y-120291624D01*
X190672784Y-120359544D01*
X190820354Y-120458147D01*
X190945853Y-120583646D01*
X191044456Y-120731216D01*
X191112376Y-120895188D01*
X191147000Y-121069259D01*
X191147000Y-121246741D01*
X191112376Y-121420812D01*
X191044456Y-121584784D01*
X190945853Y-121732354D01*
X190820354Y-121857853D01*
X190672784Y-121956456D01*
X190508812Y-122024376D01*
X190359512Y-122054073D01*
X190334742Y-122059000D01*
X190157258Y-122059000D01*
X190132488Y-122054073D01*
X189983188Y-122024376D01*
X189819216Y-121956456D01*
X189671646Y-121857853D01*
X189546147Y-121732354D01*
X189447544Y-121584784D01*
X189379624Y-121420812D01*
X189345000Y-121246741D01*
X189345000Y-121069259D01*
X189379624Y-120895188D01*
X189447544Y-120731216D01*
X189546147Y-120583646D01*
X189671646Y-120458147D01*
X189819216Y-120359544D01*
X189983188Y-120291624D01*
X190132488Y-120261927D01*
X190157258Y-120257000D01*
X190334742Y-120257000D01*
X190359512Y-120261927D01*
G37*
G36*
X187819512Y-120261927D02*
G01*
X187968812Y-120291624D01*
X188132784Y-120359544D01*
X188280354Y-120458147D01*
X188405853Y-120583646D01*
X188504456Y-120731216D01*
X188572376Y-120895188D01*
X188607000Y-121069259D01*
X188607000Y-121246741D01*
X188572376Y-121420812D01*
X188504456Y-121584784D01*
X188405853Y-121732354D01*
X188280354Y-121857853D01*
X188132784Y-121956456D01*
X187968812Y-122024376D01*
X187819512Y-122054073D01*
X187794742Y-122059000D01*
X187617258Y-122059000D01*
X187592488Y-122054073D01*
X187443188Y-122024376D01*
X187279216Y-121956456D01*
X187131646Y-121857853D01*
X187006147Y-121732354D01*
X186907544Y-121584784D01*
X186839624Y-121420812D01*
X186805000Y-121246741D01*
X186805000Y-121069259D01*
X186839624Y-120895188D01*
X186907544Y-120731216D01*
X187006147Y-120583646D01*
X187131646Y-120458147D01*
X187279216Y-120359544D01*
X187443188Y-120291624D01*
X187592488Y-120261927D01*
X187617258Y-120257000D01*
X187794742Y-120257000D01*
X187819512Y-120261927D01*
G37*
G36*
X186067000Y-122059000D02*
G01*
X184265000Y-122059000D01*
X184265000Y-120257000D01*
X186067000Y-120257000D01*
X186067000Y-122059000D01*
G37*
G36*
X190359512Y-117721927D02*
G01*
X190508812Y-117751624D01*
X190672784Y-117819544D01*
X190820354Y-117918147D01*
X190945853Y-118043646D01*
X191044456Y-118191216D01*
X191112376Y-118355188D01*
X191147000Y-118529259D01*
X191147000Y-118706741D01*
X191112376Y-118880812D01*
X191044456Y-119044784D01*
X190945853Y-119192354D01*
X190820354Y-119317853D01*
X190672784Y-119416456D01*
X190508812Y-119484376D01*
X190359512Y-119514073D01*
X190334742Y-119519000D01*
X190157258Y-119519000D01*
X190132488Y-119514073D01*
X189983188Y-119484376D01*
X189819216Y-119416456D01*
X189671646Y-119317853D01*
X189546147Y-119192354D01*
X189447544Y-119044784D01*
X189379624Y-118880812D01*
X189345000Y-118706741D01*
X189345000Y-118529259D01*
X189379624Y-118355188D01*
X189447544Y-118191216D01*
X189546147Y-118043646D01*
X189671646Y-117918147D01*
X189819216Y-117819544D01*
X189983188Y-117751624D01*
X190132488Y-117721927D01*
X190157258Y-117717000D01*
X190334742Y-117717000D01*
X190359512Y-117721927D01*
G37*
G36*
X187819512Y-117721927D02*
G01*
X187968812Y-117751624D01*
X188132784Y-117819544D01*
X188280354Y-117918147D01*
X188405853Y-118043646D01*
X188504456Y-118191216D01*
X188572376Y-118355188D01*
X188607000Y-118529259D01*
X188607000Y-118706741D01*
X188572376Y-118880812D01*
X188504456Y-119044784D01*
X188405853Y-119192354D01*
X188280354Y-119317853D01*
X188132784Y-119416456D01*
X187968812Y-119484376D01*
X187819512Y-119514073D01*
X187794742Y-119519000D01*
X187617258Y-119519000D01*
X187592488Y-119514073D01*
X187443188Y-119484376D01*
X187279216Y-119416456D01*
X187131646Y-119317853D01*
X187006147Y-119192354D01*
X186907544Y-119044784D01*
X186839624Y-118880812D01*
X186805000Y-118706741D01*
X186805000Y-118529259D01*
X186839624Y-118355188D01*
X186907544Y-118191216D01*
X187006147Y-118043646D01*
X187131646Y-117918147D01*
X187279216Y-117819544D01*
X187443188Y-117751624D01*
X187592488Y-117721927D01*
X187617258Y-117717000D01*
X187794742Y-117717000D01*
X187819512Y-117721927D01*
G37*
G36*
X185279512Y-117721927D02*
G01*
X185428812Y-117751624D01*
X185592784Y-117819544D01*
X185740354Y-117918147D01*
X185865853Y-118043646D01*
X185964456Y-118191216D01*
X186032376Y-118355188D01*
X186067000Y-118529259D01*
X186067000Y-118706741D01*
X186032376Y-118880812D01*
X185964456Y-119044784D01*
X185865853Y-119192354D01*
X185740354Y-119317853D01*
X185592784Y-119416456D01*
X185428812Y-119484376D01*
X185279512Y-119514073D01*
X185254742Y-119519000D01*
X185077258Y-119519000D01*
X185052488Y-119514073D01*
X184903188Y-119484376D01*
X184739216Y-119416456D01*
X184591646Y-119317853D01*
X184466147Y-119192354D01*
X184367544Y-119044784D01*
X184299624Y-118880812D01*
X184265000Y-118706741D01*
X184265000Y-118529259D01*
X184299624Y-118355188D01*
X184367544Y-118191216D01*
X184466147Y-118043646D01*
X184591646Y-117918147D01*
X184739216Y-117819544D01*
X184903188Y-117751624D01*
X185052488Y-117721927D01*
X185077258Y-117717000D01*
X185254742Y-117717000D01*
X185279512Y-117721927D01*
G37*
G36*
X165856228Y-117799703D02*
G01*
X166011100Y-117863853D01*
X166150481Y-117956985D01*
X166269015Y-118075519D01*
X166362147Y-118214900D01*
X166426297Y-118369772D01*
X166459000Y-118534184D01*
X166459000Y-118701816D01*
X166426297Y-118866228D01*
X166362147Y-119021100D01*
X166269015Y-119160481D01*
X166150481Y-119279015D01*
X166011100Y-119372147D01*
X165856228Y-119436297D01*
X165691816Y-119469000D01*
X165524184Y-119469000D01*
X165359772Y-119436297D01*
X165204900Y-119372147D01*
X165065519Y-119279015D01*
X164946985Y-119160481D01*
X164853853Y-119021100D01*
X164789703Y-118866228D01*
X164757000Y-118701816D01*
X164757000Y-118534184D01*
X164789703Y-118369772D01*
X164853853Y-118214900D01*
X164946985Y-118075519D01*
X165065519Y-117956985D01*
X165204900Y-117863853D01*
X165359772Y-117799703D01*
X165524184Y-117767000D01*
X165691816Y-117767000D01*
X165856228Y-117799703D01*
G37*
G36*
X168396228Y-117799703D02*
G01*
X168551100Y-117863853D01*
X168690481Y-117956985D01*
X168809015Y-118075519D01*
X168902147Y-118214900D01*
X168966297Y-118369772D01*
X168999000Y-118534184D01*
X168999000Y-118701816D01*
X168966297Y-118866228D01*
X168902147Y-119021100D01*
X168809015Y-119160481D01*
X168690481Y-119279015D01*
X168551100Y-119372147D01*
X168396228Y-119436297D01*
X168231816Y-119469000D01*
X168064184Y-119469000D01*
X167899772Y-119436297D01*
X167744900Y-119372147D01*
X167605519Y-119279015D01*
X167486985Y-119160481D01*
X167393853Y-119021100D01*
X167329703Y-118866228D01*
X167297000Y-118701816D01*
X167297000Y-118534184D01*
X167329703Y-118369772D01*
X167393853Y-118214900D01*
X167486985Y-118075519D01*
X167605519Y-117956985D01*
X167744900Y-117863853D01*
X167899772Y-117799703D01*
X168064184Y-117767000D01*
X168231816Y-117767000D01*
X168396228Y-117799703D01*
G37*
G36*
X170936228Y-117799703D02*
G01*
X171091100Y-117863853D01*
X171230481Y-117956985D01*
X171349015Y-118075519D01*
X171442147Y-118214900D01*
X171506297Y-118369772D01*
X171539000Y-118534184D01*
X171539000Y-118701816D01*
X171506297Y-118866228D01*
X171442147Y-119021100D01*
X171349015Y-119160481D01*
X171230481Y-119279015D01*
X171091100Y-119372147D01*
X170936228Y-119436297D01*
X170771816Y-119469000D01*
X170604184Y-119469000D01*
X170439772Y-119436297D01*
X170284900Y-119372147D01*
X170145519Y-119279015D01*
X170026985Y-119160481D01*
X169933853Y-119021100D01*
X169869703Y-118866228D01*
X169837000Y-118701816D01*
X169837000Y-118534184D01*
X169869703Y-118369772D01*
X169933853Y-118214900D01*
X170026985Y-118075519D01*
X170145519Y-117956985D01*
X170284900Y-117863853D01*
X170439772Y-117799703D01*
X170604184Y-117767000D01*
X170771816Y-117767000D01*
X170936228Y-117799703D01*
G37*
G36*
X163316228Y-117799703D02*
G01*
X163471100Y-117863853D01*
X163610481Y-117956985D01*
X163729015Y-118075519D01*
X163822147Y-118214900D01*
X163886297Y-118369772D01*
X163919000Y-118534184D01*
X163919000Y-118701816D01*
X163886297Y-118866228D01*
X163822147Y-119021100D01*
X163729015Y-119160481D01*
X163610481Y-119279015D01*
X163471100Y-119372147D01*
X163316228Y-119436297D01*
X163151816Y-119469000D01*
X162984184Y-119469000D01*
X162819772Y-119436297D01*
X162664900Y-119372147D01*
X162525519Y-119279015D01*
X162406985Y-119160481D01*
X162313853Y-119021100D01*
X162249703Y-118866228D01*
X162217000Y-118701816D01*
X162217000Y-118534184D01*
X162249703Y-118369772D01*
X162313853Y-118214900D01*
X162406985Y-118075519D01*
X162525519Y-117956985D01*
X162664900Y-117863853D01*
X162819772Y-117799703D01*
X162984184Y-117767000D01*
X163151816Y-117767000D01*
X163316228Y-117799703D01*
G37*
G36*
X173476228Y-117799703D02*
G01*
X173631100Y-117863853D01*
X173770481Y-117956985D01*
X173889015Y-118075519D01*
X173982147Y-118214900D01*
X174046297Y-118369772D01*
X174079000Y-118534184D01*
X174079000Y-118701816D01*
X174046297Y-118866228D01*
X173982147Y-119021100D01*
X173889015Y-119160481D01*
X173770481Y-119279015D01*
X173631100Y-119372147D01*
X173476228Y-119436297D01*
X173311816Y-119469000D01*
X173144184Y-119469000D01*
X172979772Y-119436297D01*
X172824900Y-119372147D01*
X172685519Y-119279015D01*
X172566985Y-119160481D01*
X172473853Y-119021100D01*
X172409703Y-118866228D01*
X172377000Y-118701816D01*
X172377000Y-118534184D01*
X172409703Y-118369772D01*
X172473853Y-118214900D01*
X172566985Y-118075519D01*
X172685519Y-117956985D01*
X172824900Y-117863853D01*
X172979772Y-117799703D01*
X173144184Y-117767000D01*
X173311816Y-117767000D01*
X173476228Y-117799703D01*
G37*
G36*
X148076228Y-117799703D02*
G01*
X148231100Y-117863853D01*
X148370481Y-117956985D01*
X148489015Y-118075519D01*
X148582147Y-118214900D01*
X148646297Y-118369772D01*
X148679000Y-118534184D01*
X148679000Y-118701816D01*
X148646297Y-118866228D01*
X148582147Y-119021100D01*
X148489015Y-119160481D01*
X148370481Y-119279015D01*
X148231100Y-119372147D01*
X148076228Y-119436297D01*
X147911816Y-119469000D01*
X147744184Y-119469000D01*
X147579772Y-119436297D01*
X147424900Y-119372147D01*
X147285519Y-119279015D01*
X147166985Y-119160481D01*
X147073853Y-119021100D01*
X147009703Y-118866228D01*
X146977000Y-118701816D01*
X146977000Y-118534184D01*
X147009703Y-118369772D01*
X147073853Y-118214900D01*
X147166985Y-118075519D01*
X147285519Y-117956985D01*
X147424900Y-117863853D01*
X147579772Y-117799703D01*
X147744184Y-117767000D01*
X147911816Y-117767000D01*
X148076228Y-117799703D01*
G37*
G36*
X178556228Y-117799703D02*
G01*
X178711100Y-117863853D01*
X178850481Y-117956985D01*
X178969015Y-118075519D01*
X179062147Y-118214900D01*
X179126297Y-118369772D01*
X179159000Y-118534184D01*
X179159000Y-118701816D01*
X179126297Y-118866228D01*
X179062147Y-119021100D01*
X178969015Y-119160481D01*
X178850481Y-119279015D01*
X178711100Y-119372147D01*
X178556228Y-119436297D01*
X178391816Y-119469000D01*
X178224184Y-119469000D01*
X178059772Y-119436297D01*
X177904900Y-119372147D01*
X177765519Y-119279015D01*
X177646985Y-119160481D01*
X177553853Y-119021100D01*
X177489703Y-118866228D01*
X177457000Y-118701816D01*
X177457000Y-118534184D01*
X177489703Y-118369772D01*
X177553853Y-118214900D01*
X177646985Y-118075519D01*
X177765519Y-117956985D01*
X177904900Y-117863853D01*
X178059772Y-117799703D01*
X178224184Y-117767000D01*
X178391816Y-117767000D01*
X178556228Y-117799703D01*
G37*
G36*
X181096228Y-117799703D02*
G01*
X181251100Y-117863853D01*
X181390481Y-117956985D01*
X181509015Y-118075519D01*
X181602147Y-118214900D01*
X181666297Y-118369772D01*
X181699000Y-118534184D01*
X181699000Y-118701816D01*
X181666297Y-118866228D01*
X181602147Y-119021100D01*
X181509015Y-119160481D01*
X181390481Y-119279015D01*
X181251100Y-119372147D01*
X181096228Y-119436297D01*
X180931816Y-119469000D01*
X180764184Y-119469000D01*
X180599772Y-119436297D01*
X180444900Y-119372147D01*
X180305519Y-119279015D01*
X180186985Y-119160481D01*
X180093853Y-119021100D01*
X180029703Y-118866228D01*
X179997000Y-118701816D01*
X179997000Y-118534184D01*
X180029703Y-118369772D01*
X180093853Y-118214900D01*
X180186985Y-118075519D01*
X180305519Y-117956985D01*
X180444900Y-117863853D01*
X180599772Y-117799703D01*
X180764184Y-117767000D01*
X180931816Y-117767000D01*
X181096228Y-117799703D01*
G37*
G36*
X153156228Y-117799703D02*
G01*
X153311100Y-117863853D01*
X153450481Y-117956985D01*
X153569015Y-118075519D01*
X153662147Y-118214900D01*
X153726297Y-118369772D01*
X153759000Y-118534184D01*
X153759000Y-118701816D01*
X153726297Y-118866228D01*
X153662147Y-119021100D01*
X153569015Y-119160481D01*
X153450481Y-119279015D01*
X153311100Y-119372147D01*
X153156228Y-119436297D01*
X152991816Y-119469000D01*
X152824184Y-119469000D01*
X152659772Y-119436297D01*
X152504900Y-119372147D01*
X152365519Y-119279015D01*
X152246985Y-119160481D01*
X152153853Y-119021100D01*
X152089703Y-118866228D01*
X152057000Y-118701816D01*
X152057000Y-118534184D01*
X152089703Y-118369772D01*
X152153853Y-118214900D01*
X152246985Y-118075519D01*
X152365519Y-117956985D01*
X152504900Y-117863853D01*
X152659772Y-117799703D01*
X152824184Y-117767000D01*
X152991816Y-117767000D01*
X153156228Y-117799703D01*
G37*
G36*
X155696228Y-117799703D02*
G01*
X155851100Y-117863853D01*
X155990481Y-117956985D01*
X156109015Y-118075519D01*
X156202147Y-118214900D01*
X156266297Y-118369772D01*
X156299000Y-118534184D01*
X156299000Y-118701816D01*
X156266297Y-118866228D01*
X156202147Y-119021100D01*
X156109015Y-119160481D01*
X155990481Y-119279015D01*
X155851100Y-119372147D01*
X155696228Y-119436297D01*
X155531816Y-119469000D01*
X155364184Y-119469000D01*
X155199772Y-119436297D01*
X155044900Y-119372147D01*
X154905519Y-119279015D01*
X154786985Y-119160481D01*
X154693853Y-119021100D01*
X154629703Y-118866228D01*
X154597000Y-118701816D01*
X154597000Y-118534184D01*
X154629703Y-118369772D01*
X154693853Y-118214900D01*
X154786985Y-118075519D01*
X154905519Y-117956985D01*
X155044900Y-117863853D01*
X155199772Y-117799703D01*
X155364184Y-117767000D01*
X155531816Y-117767000D01*
X155696228Y-117799703D01*
G37*
G36*
X160776228Y-117799703D02*
G01*
X160931100Y-117863853D01*
X161070481Y-117956985D01*
X161189015Y-118075519D01*
X161282147Y-118214900D01*
X161346297Y-118369772D01*
X161379000Y-118534184D01*
X161379000Y-118701816D01*
X161346297Y-118866228D01*
X161282147Y-119021100D01*
X161189015Y-119160481D01*
X161070481Y-119279015D01*
X160931100Y-119372147D01*
X160776228Y-119436297D01*
X160611816Y-119469000D01*
X160444184Y-119469000D01*
X160279772Y-119436297D01*
X160124900Y-119372147D01*
X159985519Y-119279015D01*
X159866985Y-119160481D01*
X159773853Y-119021100D01*
X159709703Y-118866228D01*
X159677000Y-118701816D01*
X159677000Y-118534184D01*
X159709703Y-118369772D01*
X159773853Y-118214900D01*
X159866985Y-118075519D01*
X159985519Y-117956985D01*
X160124900Y-117863853D01*
X160279772Y-117799703D01*
X160444184Y-117767000D01*
X160611816Y-117767000D01*
X160776228Y-117799703D01*
G37*
G36*
X158236228Y-117799703D02*
G01*
X158391100Y-117863853D01*
X158530481Y-117956985D01*
X158649015Y-118075519D01*
X158742147Y-118214900D01*
X158806297Y-118369772D01*
X158839000Y-118534184D01*
X158839000Y-118701816D01*
X158806297Y-118866228D01*
X158742147Y-119021100D01*
X158649015Y-119160481D01*
X158530481Y-119279015D01*
X158391100Y-119372147D01*
X158236228Y-119436297D01*
X158071816Y-119469000D01*
X157904184Y-119469000D01*
X157739772Y-119436297D01*
X157584900Y-119372147D01*
X157445519Y-119279015D01*
X157326985Y-119160481D01*
X157233853Y-119021100D01*
X157169703Y-118866228D01*
X157137000Y-118701816D01*
X157137000Y-118534184D01*
X157169703Y-118369772D01*
X157233853Y-118214900D01*
X157326985Y-118075519D01*
X157445519Y-117956985D01*
X157584900Y-117863853D01*
X157739772Y-117799703D01*
X157904184Y-117767000D01*
X158071816Y-117767000D01*
X158236228Y-117799703D01*
G37*
G36*
X150616228Y-117799703D02*
G01*
X150771100Y-117863853D01*
X150910481Y-117956985D01*
X151029015Y-118075519D01*
X151122147Y-118214900D01*
X151186297Y-118369772D01*
X151219000Y-118534184D01*
X151219000Y-118701816D01*
X151186297Y-118866228D01*
X151122147Y-119021100D01*
X151029015Y-119160481D01*
X150910481Y-119279015D01*
X150771100Y-119372147D01*
X150616228Y-119436297D01*
X150451816Y-119469000D01*
X150284184Y-119469000D01*
X150119772Y-119436297D01*
X149964900Y-119372147D01*
X149825519Y-119279015D01*
X149706985Y-119160481D01*
X149613853Y-119021100D01*
X149549703Y-118866228D01*
X149517000Y-118701816D01*
X149517000Y-118534184D01*
X149549703Y-118369772D01*
X149613853Y-118214900D01*
X149706985Y-118075519D01*
X149825519Y-117956985D01*
X149964900Y-117863853D01*
X150119772Y-117799703D01*
X150284184Y-117767000D01*
X150451816Y-117767000D01*
X150616228Y-117799703D01*
G37*
G36*
X176016228Y-117799703D02*
G01*
X176171100Y-117863853D01*
X176310481Y-117956985D01*
X176429015Y-118075519D01*
X176522147Y-118214900D01*
X176586297Y-118369772D01*
X176619000Y-118534184D01*
X176619000Y-118701816D01*
X176586297Y-118866228D01*
X176522147Y-119021100D01*
X176429015Y-119160481D01*
X176310481Y-119279015D01*
X176171100Y-119372147D01*
X176016228Y-119436297D01*
X175851816Y-119469000D01*
X175684184Y-119469000D01*
X175519772Y-119436297D01*
X175364900Y-119372147D01*
X175225519Y-119279015D01*
X175106985Y-119160481D01*
X175013853Y-119021100D01*
X174949703Y-118866228D01*
X174917000Y-118701816D01*
X174917000Y-118534184D01*
X174949703Y-118369772D01*
X175013853Y-118214900D01*
X175106985Y-118075519D01*
X175225519Y-117956985D01*
X175364900Y-117863853D01*
X175519772Y-117799703D01*
X175684184Y-117767000D01*
X175851816Y-117767000D01*
X176016228Y-117799703D01*
G37*
G36*
X122277272Y-115853428D02*
G01*
X122463991Y-115930770D01*
X122463993Y-115930771D01*
X122632037Y-116043054D01*
X122774946Y-116185963D01*
X122887229Y-116354007D01*
X122887230Y-116354009D01*
X122964572Y-116540728D01*
X123004000Y-116738947D01*
X123004000Y-116941053D01*
X122964572Y-117139272D01*
X122887230Y-117325991D01*
X122887229Y-117325993D01*
X122774946Y-117494037D01*
X122632037Y-117636946D01*
X122463993Y-117749229D01*
X122463992Y-117749230D01*
X122463991Y-117749230D01*
X122277272Y-117826572D01*
X122079053Y-117866000D01*
X121876947Y-117866000D01*
X121678728Y-117826572D01*
X121492009Y-117749230D01*
X121492008Y-117749230D01*
X121492007Y-117749229D01*
X121323963Y-117636946D01*
X121181054Y-117494037D01*
X121068771Y-117325993D01*
X121068770Y-117325991D01*
X120991428Y-117139272D01*
X120952000Y-116941053D01*
X120952000Y-116738947D01*
X120991428Y-116540728D01*
X121068770Y-116354009D01*
X121068771Y-116354007D01*
X121181054Y-116185963D01*
X121323963Y-116043054D01*
X121492007Y-115930771D01*
X121492009Y-115930770D01*
X121678728Y-115853428D01*
X121876947Y-115814000D01*
X122079053Y-115814000D01*
X122277272Y-115853428D01*
G37*
G36*
X129897272Y-115853428D02*
G01*
X130083991Y-115930770D01*
X130083993Y-115930771D01*
X130252037Y-116043054D01*
X130394946Y-116185963D01*
X130507229Y-116354007D01*
X130507230Y-116354009D01*
X130584572Y-116540728D01*
X130624000Y-116738947D01*
X130624000Y-116941053D01*
X130584572Y-117139272D01*
X130507230Y-117325991D01*
X130507229Y-117325993D01*
X130394946Y-117494037D01*
X130252037Y-117636946D01*
X130083993Y-117749229D01*
X130083992Y-117749230D01*
X130083991Y-117749230D01*
X129897272Y-117826572D01*
X129699053Y-117866000D01*
X129496947Y-117866000D01*
X129298728Y-117826572D01*
X129112009Y-117749230D01*
X129112008Y-117749230D01*
X129112007Y-117749229D01*
X128943963Y-117636946D01*
X128801054Y-117494037D01*
X128688771Y-117325993D01*
X128688770Y-117325991D01*
X128611428Y-117139272D01*
X128572000Y-116941053D01*
X128572000Y-116738947D01*
X128611428Y-116540728D01*
X128688770Y-116354009D01*
X128688771Y-116354007D01*
X128801054Y-116185963D01*
X128943963Y-116043054D01*
X129112007Y-115930771D01*
X129112009Y-115930770D01*
X129298728Y-115853428D01*
X129496947Y-115814000D01*
X129699053Y-115814000D01*
X129897272Y-115853428D01*
G37*
G36*
X140057272Y-115853428D02*
G01*
X140243991Y-115930770D01*
X140243993Y-115930771D01*
X140412037Y-116043054D01*
X140554946Y-116185963D01*
X140667229Y-116354007D01*
X140667230Y-116354009D01*
X140744572Y-116540728D01*
X140784000Y-116738947D01*
X140784000Y-116941053D01*
X140744572Y-117139272D01*
X140667230Y-117325991D01*
X140667229Y-117325993D01*
X140554946Y-117494037D01*
X140412037Y-117636946D01*
X140243993Y-117749229D01*
X140243992Y-117749230D01*
X140243991Y-117749230D01*
X140057272Y-117826572D01*
X139859053Y-117866000D01*
X139656947Y-117866000D01*
X139458728Y-117826572D01*
X139272009Y-117749230D01*
X139272008Y-117749230D01*
X139272007Y-117749229D01*
X139103963Y-117636946D01*
X138961054Y-117494037D01*
X138848771Y-117325993D01*
X138848770Y-117325991D01*
X138771428Y-117139272D01*
X138732000Y-116941053D01*
X138732000Y-116738947D01*
X138771428Y-116540728D01*
X138848770Y-116354009D01*
X138848771Y-116354007D01*
X138961054Y-116185963D01*
X139103963Y-116043054D01*
X139272007Y-115930771D01*
X139272009Y-115930770D01*
X139458728Y-115853428D01*
X139656947Y-115814000D01*
X139859053Y-115814000D01*
X140057272Y-115853428D01*
G37*
G36*
X171943142Y-113892242D02*
G01*
X172091101Y-113953529D01*
X172224255Y-114042499D01*
X172337501Y-114155745D01*
X172426471Y-114288899D01*
X172487758Y-114436858D01*
X172519000Y-114593925D01*
X172519000Y-114754075D01*
X172487758Y-114911142D01*
X172426471Y-115059101D01*
X172337501Y-115192255D01*
X172224255Y-115305501D01*
X172091101Y-115394471D01*
X171943142Y-115455758D01*
X171786075Y-115487000D01*
X171625925Y-115487000D01*
X171468858Y-115455758D01*
X171320899Y-115394471D01*
X171187745Y-115305501D01*
X171074499Y-115192255D01*
X170985529Y-115059101D01*
X170924242Y-114911142D01*
X170893000Y-114754075D01*
X170893000Y-114593925D01*
X170924242Y-114436858D01*
X170985529Y-114288899D01*
X171074499Y-114155745D01*
X171187745Y-114042499D01*
X171320899Y-113953529D01*
X171468858Y-113892242D01*
X171625925Y-113861000D01*
X171786075Y-113861000D01*
X171943142Y-113892242D01*
G37*
G36*
X169443142Y-113892242D02*
G01*
X169591101Y-113953529D01*
X169724255Y-114042499D01*
X169837501Y-114155745D01*
X169926471Y-114288899D01*
X169987758Y-114436858D01*
X170019000Y-114593925D01*
X170019000Y-114754075D01*
X169987758Y-114911142D01*
X169926471Y-115059101D01*
X169837501Y-115192255D01*
X169724255Y-115305501D01*
X169591101Y-115394471D01*
X169443142Y-115455758D01*
X169286075Y-115487000D01*
X169125925Y-115487000D01*
X168968858Y-115455758D01*
X168820899Y-115394471D01*
X168687745Y-115305501D01*
X168574499Y-115192255D01*
X168485529Y-115059101D01*
X168424242Y-114911142D01*
X168393000Y-114754075D01*
X168393000Y-114593925D01*
X168424242Y-114436858D01*
X168485529Y-114288899D01*
X168574499Y-114155745D01*
X168687745Y-114042499D01*
X168820899Y-113953529D01*
X168968858Y-113892242D01*
X169125925Y-113861000D01*
X169286075Y-113861000D01*
X169443142Y-113892242D01*
G37*
G36*
X112618318Y-111875153D02*
G01*
X112736734Y-111924203D01*
X112836887Y-111965688D01*
X113033593Y-112097122D01*
X113200878Y-112264407D01*
X113320418Y-112443313D01*
X113332313Y-112461115D01*
X113422847Y-112679682D01*
X113469000Y-112911710D01*
X113469000Y-113148290D01*
X113422847Y-113380318D01*
X113332313Y-113598885D01*
X113332312Y-113598887D01*
X113200878Y-113795593D01*
X113033593Y-113962878D01*
X112836887Y-114094312D01*
X112836886Y-114094313D01*
X112836885Y-114094313D01*
X112618318Y-114184847D01*
X112386290Y-114231000D01*
X112149710Y-114231000D01*
X111917682Y-114184847D01*
X111699115Y-114094313D01*
X111699114Y-114094313D01*
X111699113Y-114094312D01*
X111502407Y-113962878D01*
X111335122Y-113795593D01*
X111203688Y-113598887D01*
X111203687Y-113598885D01*
X111113153Y-113380318D01*
X111067000Y-113148290D01*
X111067000Y-112911710D01*
X111113153Y-112679682D01*
X111203687Y-112461115D01*
X111215582Y-112443313D01*
X111335122Y-112264407D01*
X111502407Y-112097122D01*
X111699113Y-111965688D01*
X111799266Y-111924203D01*
X111917682Y-111875153D01*
X112149710Y-111829000D01*
X112386290Y-111829000D01*
X112618318Y-111875153D01*
G37*
G36*
X186087818Y-110224153D02*
G01*
X186306385Y-110314687D01*
X186306387Y-110314688D01*
X186503093Y-110446122D01*
X186670378Y-110613407D01*
X186801812Y-110810113D01*
X186801813Y-110810115D01*
X186892347Y-111028682D01*
X186938500Y-111260710D01*
X186938500Y-111497290D01*
X186892347Y-111729318D01*
X186819147Y-111906037D01*
X186801812Y-111947887D01*
X186670378Y-112144593D01*
X186503093Y-112311878D01*
X186306387Y-112443312D01*
X186306386Y-112443313D01*
X186306385Y-112443313D01*
X186087818Y-112533847D01*
X185855790Y-112580000D01*
X185619210Y-112580000D01*
X185387182Y-112533847D01*
X185168615Y-112443313D01*
X185168614Y-112443313D01*
X185168613Y-112443312D01*
X184971907Y-112311878D01*
X184804622Y-112144593D01*
X184673188Y-111947887D01*
X184655853Y-111906037D01*
X184582653Y-111729318D01*
X184536500Y-111497290D01*
X184536500Y-111260710D01*
X184582653Y-111028682D01*
X184673187Y-110810115D01*
X184673188Y-110810113D01*
X184804622Y-110613407D01*
X184971907Y-110446122D01*
X185168613Y-110314688D01*
X185168615Y-110314687D01*
X185387182Y-110224153D01*
X185619210Y-110178000D01*
X185855790Y-110178000D01*
X186087818Y-110224153D01*
G37*
G36*
X191167818Y-110224153D02*
G01*
X191386385Y-110314687D01*
X191386387Y-110314688D01*
X191583093Y-110446122D01*
X191750378Y-110613407D01*
X191881812Y-110810113D01*
X191881813Y-110810115D01*
X191972347Y-111028682D01*
X192018500Y-111260710D01*
X192018500Y-111497290D01*
X191972347Y-111729318D01*
X191899147Y-111906037D01*
X191881812Y-111947887D01*
X191750378Y-112144593D01*
X191583093Y-112311878D01*
X191386387Y-112443312D01*
X191386386Y-112443313D01*
X191386385Y-112443313D01*
X191167818Y-112533847D01*
X190935790Y-112580000D01*
X190699210Y-112580000D01*
X190467182Y-112533847D01*
X190248615Y-112443313D01*
X190248614Y-112443313D01*
X190248613Y-112443312D01*
X190051907Y-112311878D01*
X189884622Y-112144593D01*
X189753188Y-111947887D01*
X189735853Y-111906037D01*
X189662653Y-111729318D01*
X189616500Y-111497290D01*
X189616500Y-111260710D01*
X189662653Y-111028682D01*
X189753187Y-110810115D01*
X189753188Y-110810113D01*
X189884622Y-110613407D01*
X190051907Y-110446122D01*
X190248613Y-110314688D01*
X190248615Y-110314687D01*
X190467182Y-110224153D01*
X190699210Y-110178000D01*
X190935790Y-110178000D01*
X191167818Y-110224153D01*
G37*
G36*
X180882049Y-110250116D02*
G01*
X180993234Y-110272232D01*
X181202703Y-110358997D01*
X181391220Y-110484960D01*
X181551540Y-110645280D01*
X181677503Y-110833797D01*
X181764268Y-111043266D01*
X181808500Y-111265636D01*
X181808500Y-111492364D01*
X181764268Y-111714734D01*
X181677503Y-111924203D01*
X181551540Y-112112720D01*
X181391220Y-112273040D01*
X181202703Y-112399003D01*
X180993234Y-112485768D01*
X180882049Y-112507884D01*
X180770865Y-112530000D01*
X180544135Y-112530000D01*
X180432951Y-112507884D01*
X180321766Y-112485768D01*
X180112297Y-112399003D01*
X179923780Y-112273040D01*
X179763460Y-112112720D01*
X179637497Y-111924203D01*
X179550732Y-111714734D01*
X179506500Y-111492364D01*
X179506500Y-111265636D01*
X179550732Y-111043266D01*
X179637497Y-110833797D01*
X179763460Y-110645280D01*
X179923780Y-110484960D01*
X180112297Y-110358997D01*
X180321766Y-110272232D01*
X180432951Y-110250116D01*
X180544135Y-110228000D01*
X180770865Y-110228000D01*
X180882049Y-110250116D01*
G37*
G36*
X140057272Y-110265428D02*
G01*
X140176195Y-110314688D01*
X140243993Y-110342771D01*
X140412037Y-110455054D01*
X140554946Y-110597963D01*
X140644678Y-110732257D01*
X140667230Y-110766009D01*
X140744572Y-110952728D01*
X140784000Y-111150947D01*
X140784000Y-111353053D01*
X140744572Y-111551272D01*
X140676864Y-111714733D01*
X140667229Y-111737993D01*
X140554946Y-111906037D01*
X140412037Y-112048946D01*
X140243993Y-112161229D01*
X140243992Y-112161230D01*
X140243991Y-112161230D01*
X140057272Y-112238572D01*
X139859053Y-112278000D01*
X139656947Y-112278000D01*
X139458728Y-112238572D01*
X139272009Y-112161230D01*
X139272008Y-112161230D01*
X139272007Y-112161229D01*
X139103963Y-112048946D01*
X138961054Y-111906037D01*
X138848771Y-111737993D01*
X138839136Y-111714733D01*
X138771428Y-111551272D01*
X138732000Y-111353053D01*
X138732000Y-111150947D01*
X138771428Y-110952728D01*
X138848770Y-110766009D01*
X138871322Y-110732257D01*
X138961054Y-110597963D01*
X139103963Y-110455054D01*
X139272007Y-110342771D01*
X139339805Y-110314688D01*
X139458728Y-110265428D01*
X139656947Y-110226000D01*
X139859053Y-110226000D01*
X140057272Y-110265428D01*
G37*
G36*
X124817272Y-110265428D02*
G01*
X124936195Y-110314688D01*
X125003993Y-110342771D01*
X125172037Y-110455054D01*
X125314946Y-110597963D01*
X125404678Y-110732257D01*
X125427230Y-110766009D01*
X125504572Y-110952728D01*
X125544000Y-111150947D01*
X125544000Y-111353053D01*
X125504572Y-111551272D01*
X125436864Y-111714733D01*
X125427229Y-111737993D01*
X125314946Y-111906037D01*
X125172037Y-112048946D01*
X125003993Y-112161229D01*
X125003992Y-112161230D01*
X125003991Y-112161230D01*
X124817272Y-112238572D01*
X124619053Y-112278000D01*
X124416947Y-112278000D01*
X124218728Y-112238572D01*
X124032009Y-112161230D01*
X124032008Y-112161230D01*
X124032007Y-112161229D01*
X123863963Y-112048946D01*
X123721054Y-111906037D01*
X123608771Y-111737993D01*
X123599136Y-111714733D01*
X123531428Y-111551272D01*
X123492000Y-111353053D01*
X123492000Y-111150947D01*
X123531428Y-110952728D01*
X123608770Y-110766009D01*
X123631322Y-110732257D01*
X123721054Y-110597963D01*
X123863963Y-110455054D01*
X124032007Y-110342771D01*
X124099805Y-110314688D01*
X124218728Y-110265428D01*
X124416947Y-110226000D01*
X124619053Y-110226000D01*
X124817272Y-110265428D01*
G37*
G36*
X164817142Y-109432242D02*
G01*
X164965101Y-109493529D01*
X165098255Y-109582499D01*
X165211501Y-109695745D01*
X165300471Y-109828899D01*
X165361758Y-109976858D01*
X165393000Y-110133925D01*
X165393000Y-110294075D01*
X165361758Y-110451142D01*
X165300471Y-110599101D01*
X165211501Y-110732255D01*
X165098255Y-110845501D01*
X164965101Y-110934471D01*
X164817142Y-110995758D01*
X164660075Y-111027000D01*
X164499925Y-111027000D01*
X164342858Y-110995758D01*
X164194899Y-110934471D01*
X164061745Y-110845501D01*
X163948499Y-110732255D01*
X163859529Y-110599101D01*
X163798242Y-110451142D01*
X163767000Y-110294075D01*
X163767000Y-110133925D01*
X163798242Y-109976858D01*
X163859529Y-109828899D01*
X163948499Y-109695745D01*
X164061745Y-109582499D01*
X164194899Y-109493529D01*
X164342858Y-109432242D01*
X164499925Y-109401000D01*
X164660075Y-109401000D01*
X164817142Y-109432242D01*
G37*
G36*
X149577142Y-109432242D02*
G01*
X149725101Y-109493529D01*
X149858255Y-109582499D01*
X149971501Y-109695745D01*
X150060471Y-109828899D01*
X150121758Y-109976858D01*
X150153000Y-110133925D01*
X150153000Y-110294075D01*
X150121758Y-110451142D01*
X150060471Y-110599101D01*
X149971501Y-110732255D01*
X149858255Y-110845501D01*
X149725101Y-110934471D01*
X149577142Y-110995758D01*
X149420075Y-111027000D01*
X149259925Y-111027000D01*
X149102858Y-110995758D01*
X148954899Y-110934471D01*
X148821745Y-110845501D01*
X148708499Y-110732255D01*
X148619529Y-110599101D01*
X148558242Y-110451142D01*
X148527000Y-110294075D01*
X148527000Y-110133925D01*
X148558242Y-109976858D01*
X148619529Y-109828899D01*
X148708499Y-109695745D01*
X148821745Y-109582499D01*
X148954899Y-109493529D01*
X149102858Y-109432242D01*
X149259925Y-109401000D01*
X149420075Y-109401000D01*
X149577142Y-109432242D01*
G37*
G36*
X154657142Y-109432242D02*
G01*
X154805101Y-109493529D01*
X154938255Y-109582499D01*
X155051501Y-109695745D01*
X155140471Y-109828899D01*
X155201758Y-109976858D01*
X155233000Y-110133925D01*
X155233000Y-110294075D01*
X155201758Y-110451142D01*
X155140471Y-110599101D01*
X155051501Y-110732255D01*
X154938255Y-110845501D01*
X154805101Y-110934471D01*
X154657142Y-110995758D01*
X154500075Y-111027000D01*
X154339925Y-111027000D01*
X154182858Y-110995758D01*
X154034899Y-110934471D01*
X153901745Y-110845501D01*
X153788499Y-110732255D01*
X153699529Y-110599101D01*
X153638242Y-110451142D01*
X153607000Y-110294075D01*
X153607000Y-110133925D01*
X153638242Y-109976858D01*
X153699529Y-109828899D01*
X153788499Y-109695745D01*
X153901745Y-109582499D01*
X154034899Y-109493529D01*
X154182858Y-109432242D01*
X154339925Y-109401000D01*
X154500075Y-109401000D01*
X154657142Y-109432242D01*
G37*
G36*
X152117142Y-109432242D02*
G01*
X152265101Y-109493529D01*
X152398255Y-109582499D01*
X152511501Y-109695745D01*
X152600471Y-109828899D01*
X152661758Y-109976858D01*
X152693000Y-110133925D01*
X152693000Y-110294075D01*
X152661758Y-110451142D01*
X152600471Y-110599101D01*
X152511501Y-110732255D01*
X152398255Y-110845501D01*
X152265101Y-110934471D01*
X152117142Y-110995758D01*
X151960075Y-111027000D01*
X151799925Y-111027000D01*
X151642858Y-110995758D01*
X151494899Y-110934471D01*
X151361745Y-110845501D01*
X151248499Y-110732255D01*
X151159529Y-110599101D01*
X151098242Y-110451142D01*
X151067000Y-110294075D01*
X151067000Y-110133925D01*
X151098242Y-109976858D01*
X151159529Y-109828899D01*
X151248499Y-109695745D01*
X151361745Y-109582499D01*
X151494899Y-109493529D01*
X151642858Y-109432242D01*
X151799925Y-109401000D01*
X151960075Y-109401000D01*
X152117142Y-109432242D01*
G37*
G36*
X157197142Y-109432242D02*
G01*
X157345101Y-109493529D01*
X157478255Y-109582499D01*
X157591501Y-109695745D01*
X157680471Y-109828899D01*
X157741758Y-109976858D01*
X157773000Y-110133925D01*
X157773000Y-110294075D01*
X157741758Y-110451142D01*
X157680471Y-110599101D01*
X157591501Y-110732255D01*
X157478255Y-110845501D01*
X157345101Y-110934471D01*
X157197142Y-110995758D01*
X157040075Y-111027000D01*
X156879925Y-111027000D01*
X156722858Y-110995758D01*
X156574899Y-110934471D01*
X156441745Y-110845501D01*
X156328499Y-110732255D01*
X156239529Y-110599101D01*
X156178242Y-110451142D01*
X156147000Y-110294075D01*
X156147000Y-110133925D01*
X156178242Y-109976858D01*
X156239529Y-109828899D01*
X156328499Y-109695745D01*
X156441745Y-109582499D01*
X156574899Y-109493529D01*
X156722858Y-109432242D01*
X156879925Y-109401000D01*
X157040075Y-109401000D01*
X157197142Y-109432242D01*
G37*
G36*
X147037142Y-109432242D02*
G01*
X147185101Y-109493529D01*
X147318255Y-109582499D01*
X147431501Y-109695745D01*
X147520471Y-109828899D01*
X147581758Y-109976858D01*
X147613000Y-110133925D01*
X147613000Y-110294075D01*
X147581758Y-110451142D01*
X147520471Y-110599101D01*
X147431501Y-110732255D01*
X147318255Y-110845501D01*
X147185101Y-110934471D01*
X147037142Y-110995758D01*
X146880075Y-111027000D01*
X146719925Y-111027000D01*
X146562858Y-110995758D01*
X146414899Y-110934471D01*
X146281745Y-110845501D01*
X146168499Y-110732255D01*
X146079529Y-110599101D01*
X146018242Y-110451142D01*
X145987000Y-110294075D01*
X145987000Y-110133925D01*
X146018242Y-109976858D01*
X146079529Y-109828899D01*
X146168499Y-109695745D01*
X146281745Y-109582499D01*
X146414899Y-109493529D01*
X146562858Y-109432242D01*
X146719925Y-109401000D01*
X146880075Y-109401000D01*
X147037142Y-109432242D01*
G37*
G36*
X159737142Y-109432242D02*
G01*
X159885101Y-109493529D01*
X160018255Y-109582499D01*
X160131501Y-109695745D01*
X160220471Y-109828899D01*
X160281758Y-109976858D01*
X160313000Y-110133925D01*
X160313000Y-110294075D01*
X160281758Y-110451142D01*
X160220471Y-110599101D01*
X160131501Y-110732255D01*
X160018255Y-110845501D01*
X159885101Y-110934471D01*
X159737142Y-110995758D01*
X159580075Y-111027000D01*
X159419925Y-111027000D01*
X159262858Y-110995758D01*
X159114899Y-110934471D01*
X158981745Y-110845501D01*
X158868499Y-110732255D01*
X158779529Y-110599101D01*
X158718242Y-110451142D01*
X158687000Y-110294075D01*
X158687000Y-110133925D01*
X158718242Y-109976858D01*
X158779529Y-109828899D01*
X158868499Y-109695745D01*
X158981745Y-109582499D01*
X159114899Y-109493529D01*
X159262858Y-109432242D01*
X159419925Y-109401000D01*
X159580075Y-109401000D01*
X159737142Y-109432242D01*
G37*
G36*
X162277142Y-109432242D02*
G01*
X162425101Y-109493529D01*
X162558255Y-109582499D01*
X162671501Y-109695745D01*
X162760471Y-109828899D01*
X162821758Y-109976858D01*
X162853000Y-110133925D01*
X162853000Y-110294075D01*
X162821758Y-110451142D01*
X162760471Y-110599101D01*
X162671501Y-110732255D01*
X162558255Y-110845501D01*
X162425101Y-110934471D01*
X162277142Y-110995758D01*
X162120075Y-111027000D01*
X161959925Y-111027000D01*
X161802858Y-110995758D01*
X161654899Y-110934471D01*
X161521745Y-110845501D01*
X161408499Y-110732255D01*
X161319529Y-110599101D01*
X161258242Y-110451142D01*
X161227000Y-110294075D01*
X161227000Y-110133925D01*
X161258242Y-109976858D01*
X161319529Y-109828899D01*
X161408499Y-109695745D01*
X161521745Y-109582499D01*
X161654899Y-109493529D01*
X161802858Y-109432242D01*
X161959925Y-109401000D01*
X162120075Y-109401000D01*
X162277142Y-109432242D01*
G37*
G36*
X112618318Y-106795153D02*
G01*
X112771636Y-106858660D01*
X112836887Y-106885688D01*
X113033593Y-107017122D01*
X113200878Y-107184407D01*
X113323572Y-107368033D01*
X113332313Y-107381115D01*
X113422847Y-107599682D01*
X113469000Y-107831710D01*
X113469000Y-108068290D01*
X113422847Y-108300318D01*
X113332313Y-108518885D01*
X113332312Y-108518887D01*
X113200878Y-108715593D01*
X113033593Y-108882878D01*
X112836887Y-109014312D01*
X112836886Y-109014313D01*
X112836885Y-109014313D01*
X112618318Y-109104847D01*
X112386290Y-109151000D01*
X112149710Y-109151000D01*
X111917682Y-109104847D01*
X111699115Y-109014313D01*
X111699114Y-109014313D01*
X111699113Y-109014312D01*
X111502407Y-108882878D01*
X111335122Y-108715593D01*
X111203688Y-108518887D01*
X111203687Y-108518885D01*
X111113153Y-108300318D01*
X111067000Y-108068290D01*
X111067000Y-107831710D01*
X111113153Y-107599682D01*
X111203687Y-107381115D01*
X111212428Y-107368033D01*
X111335122Y-107184407D01*
X111502407Y-107017122D01*
X111699113Y-106885688D01*
X111764364Y-106858660D01*
X111917682Y-106795153D01*
X112149710Y-106749000D01*
X112386290Y-106749000D01*
X112618318Y-106795153D01*
G37*
G36*
X149105395Y-106527546D02*
G01*
X149278466Y-106599234D01*
X149340973Y-106641000D01*
X149434227Y-106703310D01*
X149566690Y-106835773D01*
X149600041Y-106885687D01*
X149670766Y-106991534D01*
X149742454Y-107164605D01*
X149779000Y-107348333D01*
X149779000Y-107535667D01*
X149742454Y-107719395D01*
X149670766Y-107892466D01*
X149651877Y-107920735D01*
X149566690Y-108048227D01*
X149434227Y-108180690D01*
X149355818Y-108233081D01*
X149278466Y-108284766D01*
X149105395Y-108356454D01*
X148921667Y-108393000D01*
X148734333Y-108393000D01*
X148550605Y-108356454D01*
X148377534Y-108284766D01*
X148300182Y-108233081D01*
X148221773Y-108180690D01*
X148089310Y-108048227D01*
X148004123Y-107920735D01*
X147985234Y-107892466D01*
X147913546Y-107719395D01*
X147877000Y-107535667D01*
X147877000Y-107348333D01*
X147913546Y-107164605D01*
X147985234Y-106991534D01*
X148055959Y-106885687D01*
X148089310Y-106835773D01*
X148221773Y-106703310D01*
X148315027Y-106641000D01*
X148377534Y-106599234D01*
X148550605Y-106527546D01*
X148734333Y-106491000D01*
X148921667Y-106491000D01*
X149105395Y-106527546D01*
G37*
G36*
X154963000Y-108243000D02*
G01*
X153361000Y-108243000D01*
X153361000Y-106641000D01*
X154963000Y-106641000D01*
X154963000Y-108243000D01*
G37*
G36*
X157445059Y-106719860D02*
G01*
X157539291Y-106758892D01*
X157581732Y-106776472D01*
X157704735Y-106858660D01*
X157809340Y-106963265D01*
X157891528Y-107086268D01*
X157948140Y-107222941D01*
X157977000Y-107368033D01*
X157977000Y-107515967D01*
X157948140Y-107661059D01*
X157891528Y-107797732D01*
X157809340Y-107920735D01*
X157704735Y-108025340D01*
X157581732Y-108107528D01*
X157581731Y-108107529D01*
X157581730Y-108107529D01*
X157445059Y-108164140D01*
X157299968Y-108193000D01*
X157152032Y-108193000D01*
X157006941Y-108164140D01*
X156870270Y-108107529D01*
X156870269Y-108107529D01*
X156870268Y-108107528D01*
X156747265Y-108025340D01*
X156642660Y-107920735D01*
X156560472Y-107797732D01*
X156503860Y-107661059D01*
X156475000Y-107515967D01*
X156475000Y-107368033D01*
X156503860Y-107222941D01*
X156560472Y-107086268D01*
X156642660Y-106963265D01*
X156747265Y-106858660D01*
X156870268Y-106776472D01*
X156912710Y-106758892D01*
X157006941Y-106719860D01*
X157152032Y-106691000D01*
X157299968Y-106691000D01*
X157445059Y-106719860D01*
G37*
G36*
X164825642Y-105909781D02*
G01*
X164971414Y-105970162D01*
X164971416Y-105970163D01*
X165102608Y-106057822D01*
X165214178Y-106169392D01*
X165301837Y-106300584D01*
X165301838Y-106300586D01*
X165362219Y-106446358D01*
X165393000Y-106601107D01*
X165393000Y-106758893D01*
X165362219Y-106913642D01*
X165329955Y-106991533D01*
X165301837Y-107059416D01*
X165214178Y-107190608D01*
X165102608Y-107302178D01*
X164971416Y-107389837D01*
X164971415Y-107389838D01*
X164971414Y-107389838D01*
X164825642Y-107450219D01*
X164670893Y-107481000D01*
X164513107Y-107481000D01*
X164358358Y-107450219D01*
X164212586Y-107389838D01*
X164212585Y-107389838D01*
X164212584Y-107389837D01*
X164081392Y-107302178D01*
X163969822Y-107190608D01*
X163882163Y-107059416D01*
X163854045Y-106991533D01*
X163821781Y-106913642D01*
X163791000Y-106758893D01*
X163791000Y-106601107D01*
X163821781Y-106446358D01*
X163882162Y-106300586D01*
X163882163Y-106300584D01*
X163969822Y-106169392D01*
X164081392Y-106057822D01*
X164212584Y-105970163D01*
X164212586Y-105970162D01*
X164358358Y-105909781D01*
X164513107Y-105879000D01*
X164670893Y-105879000D01*
X164825642Y-105909781D01*
G37*
G36*
X160313000Y-107481000D02*
G01*
X158711000Y-107481000D01*
X158711000Y-105879000D01*
X160313000Y-105879000D01*
X160313000Y-107481000D01*
G37*
G36*
X151855642Y-104131781D02*
G01*
X152001414Y-104192162D01*
X152001416Y-104192163D01*
X152132608Y-104279822D01*
X152244178Y-104391392D01*
X152329719Y-104519414D01*
X152331838Y-104522586D01*
X152392219Y-104668358D01*
X152423000Y-104823107D01*
X152423000Y-104980893D01*
X152392219Y-105135642D01*
X152331838Y-105281414D01*
X152331837Y-105281416D01*
X152244178Y-105412608D01*
X152132608Y-105524178D01*
X152001416Y-105611837D01*
X152001415Y-105611838D01*
X152001414Y-105611838D01*
X151855642Y-105672219D01*
X151700893Y-105703000D01*
X151543107Y-105703000D01*
X151388358Y-105672219D01*
X151242586Y-105611838D01*
X151242585Y-105611838D01*
X151242584Y-105611837D01*
X151111392Y-105524178D01*
X150999822Y-105412608D01*
X150912163Y-105281416D01*
X150912162Y-105281414D01*
X150851781Y-105135642D01*
X150821000Y-104980893D01*
X150821000Y-104823107D01*
X150851781Y-104668358D01*
X150912162Y-104522586D01*
X150914281Y-104519414D01*
X150999822Y-104391392D01*
X151111392Y-104279822D01*
X151242584Y-104192163D01*
X151242586Y-104192162D01*
X151388358Y-104131781D01*
X151543107Y-104101000D01*
X151700893Y-104101000D01*
X151855642Y-104131781D01*
G37*
G36*
X162285642Y-103369781D02*
G01*
X162431414Y-103430162D01*
X162431416Y-103430163D01*
X162562608Y-103517822D01*
X162674178Y-103629392D01*
X162761837Y-103760584D01*
X162761838Y-103760586D01*
X162822219Y-103906358D01*
X162853000Y-104061107D01*
X162853000Y-104218893D01*
X162822219Y-104373642D01*
X162814866Y-104391393D01*
X162761837Y-104519416D01*
X162674178Y-104650608D01*
X162562608Y-104762178D01*
X162431416Y-104849837D01*
X162431415Y-104849838D01*
X162431414Y-104849838D01*
X162285642Y-104910219D01*
X162130893Y-104941000D01*
X161973107Y-104941000D01*
X161818358Y-104910219D01*
X161672586Y-104849838D01*
X161672585Y-104849838D01*
X161672584Y-104849837D01*
X161541392Y-104762178D01*
X161429822Y-104650608D01*
X161342163Y-104519416D01*
X161289134Y-104391393D01*
X161281781Y-104373642D01*
X161251000Y-104218893D01*
X161251000Y-104061107D01*
X161281781Y-103906358D01*
X161342162Y-103760586D01*
X161342163Y-103760584D01*
X161429822Y-103629392D01*
X161541392Y-103517822D01*
X161672584Y-103430163D01*
X161672586Y-103430162D01*
X161818358Y-103369781D01*
X161973107Y-103339000D01*
X162130893Y-103339000D01*
X162285642Y-103369781D01*
G37*
G36*
X122277272Y-102645428D02*
G01*
X122451823Y-102717730D01*
X122463993Y-102722771D01*
X122632037Y-102835054D01*
X122774946Y-102977963D01*
X122878016Y-103132219D01*
X122887230Y-103146009D01*
X122964572Y-103332728D01*
X123004000Y-103530947D01*
X123004000Y-103733053D01*
X122964572Y-103931272D01*
X122910792Y-104061107D01*
X122887229Y-104117993D01*
X122774946Y-104286037D01*
X122632037Y-104428946D01*
X122463993Y-104541229D01*
X122463992Y-104541230D01*
X122463991Y-104541230D01*
X122277272Y-104618572D01*
X122079053Y-104658000D01*
X121876947Y-104658000D01*
X121678728Y-104618572D01*
X121492009Y-104541230D01*
X121492008Y-104541230D01*
X121492007Y-104541229D01*
X121323963Y-104428946D01*
X121181054Y-104286037D01*
X121068771Y-104117993D01*
X121045208Y-104061107D01*
X120991428Y-103931272D01*
X120952000Y-103733053D01*
X120952000Y-103530947D01*
X120991428Y-103332728D01*
X121068770Y-103146009D01*
X121077984Y-103132219D01*
X121181054Y-102977963D01*
X121323963Y-102835054D01*
X121492007Y-102722771D01*
X121504177Y-102717730D01*
X121678728Y-102645428D01*
X121876947Y-102606000D01*
X122079053Y-102606000D01*
X122277272Y-102645428D01*
G37*
G36*
X140057272Y-102645428D02*
G01*
X140231823Y-102717730D01*
X140243993Y-102722771D01*
X140412037Y-102835054D01*
X140554946Y-102977963D01*
X140658016Y-103132219D01*
X140667230Y-103146009D01*
X140744572Y-103332728D01*
X140784000Y-103530947D01*
X140784000Y-103733053D01*
X140744572Y-103931272D01*
X140690792Y-104061107D01*
X140667229Y-104117993D01*
X140554946Y-104286037D01*
X140412037Y-104428946D01*
X140243993Y-104541229D01*
X140243992Y-104541230D01*
X140243991Y-104541230D01*
X140057272Y-104618572D01*
X139859053Y-104658000D01*
X139656947Y-104658000D01*
X139458728Y-104618572D01*
X139272009Y-104541230D01*
X139272008Y-104541230D01*
X139272007Y-104541229D01*
X139103963Y-104428946D01*
X138961054Y-104286037D01*
X138848771Y-104117993D01*
X138825208Y-104061107D01*
X138771428Y-103931272D01*
X138732000Y-103733053D01*
X138732000Y-103530947D01*
X138771428Y-103332728D01*
X138848770Y-103146009D01*
X138857984Y-103132219D01*
X138961054Y-102977963D01*
X139103963Y-102835054D01*
X139272007Y-102722771D01*
X139284177Y-102717730D01*
X139458728Y-102645428D01*
X139656947Y-102606000D01*
X139859053Y-102606000D01*
X140057272Y-102645428D01*
G37*
G36*
X129897272Y-102645428D02*
G01*
X130071823Y-102717730D01*
X130083993Y-102722771D01*
X130252037Y-102835054D01*
X130394946Y-102977963D01*
X130498016Y-103132219D01*
X130507230Y-103146009D01*
X130584572Y-103332728D01*
X130624000Y-103530947D01*
X130624000Y-103733053D01*
X130584572Y-103931272D01*
X130530792Y-104061107D01*
X130507229Y-104117993D01*
X130394946Y-104286037D01*
X130252037Y-104428946D01*
X130083993Y-104541229D01*
X130083992Y-104541230D01*
X130083991Y-104541230D01*
X129897272Y-104618572D01*
X129699053Y-104658000D01*
X129496947Y-104658000D01*
X129298728Y-104618572D01*
X129112009Y-104541230D01*
X129112008Y-104541230D01*
X129112007Y-104541229D01*
X128943963Y-104428946D01*
X128801054Y-104286037D01*
X128688771Y-104117993D01*
X128665208Y-104061107D01*
X128611428Y-103931272D01*
X128572000Y-103733053D01*
X128572000Y-103530947D01*
X128611428Y-103332728D01*
X128688770Y-103146009D01*
X128697984Y-103132219D01*
X128801054Y-102977963D01*
X128943963Y-102835054D01*
X129112007Y-102722771D01*
X129124177Y-102717730D01*
X129298728Y-102645428D01*
X129496947Y-102606000D01*
X129699053Y-102606000D01*
X129897272Y-102645428D01*
G37*
G36*
X154395642Y-101591781D02*
G01*
X154541414Y-101652162D01*
X154541416Y-101652163D01*
X154672608Y-101739822D01*
X154784178Y-101851392D01*
X154871837Y-101982584D01*
X154871838Y-101982586D01*
X154932219Y-102128358D01*
X154963000Y-102283107D01*
X154963000Y-102440893D01*
X154932219Y-102595642D01*
X154879560Y-102722771D01*
X154871837Y-102741416D01*
X154784178Y-102872608D01*
X154672608Y-102984178D01*
X154541416Y-103071837D01*
X154541415Y-103071838D01*
X154541414Y-103071838D01*
X154395642Y-103132219D01*
X154240893Y-103163000D01*
X154083107Y-103163000D01*
X153928358Y-103132219D01*
X153782586Y-103071838D01*
X153782585Y-103071838D01*
X153782584Y-103071837D01*
X153651392Y-102984178D01*
X153539822Y-102872608D01*
X153452163Y-102741416D01*
X153444440Y-102722771D01*
X153391781Y-102595642D01*
X153361000Y-102440893D01*
X153361000Y-102283107D01*
X153391781Y-102128358D01*
X153452162Y-101982586D01*
X153452163Y-101982584D01*
X153539822Y-101851392D01*
X153651392Y-101739822D01*
X153782584Y-101652163D01*
X153782586Y-101652162D01*
X153928358Y-101591781D01*
X154083107Y-101561000D01*
X154240893Y-101561000D01*
X154395642Y-101591781D01*
G37*
G36*
X157445059Y-101639860D02*
G01*
X157581732Y-101696472D01*
X157704735Y-101778660D01*
X157809340Y-101883265D01*
X157812825Y-101888481D01*
X157891529Y-102006270D01*
X157948140Y-102142941D01*
X157977000Y-102288032D01*
X157977000Y-102435968D01*
X157976020Y-102440893D01*
X157948140Y-102581059D01*
X157891528Y-102717732D01*
X157809340Y-102840735D01*
X157704735Y-102945340D01*
X157581732Y-103027528D01*
X157581731Y-103027529D01*
X157581730Y-103027529D01*
X157445059Y-103084140D01*
X157299968Y-103113000D01*
X157152032Y-103113000D01*
X157006941Y-103084140D01*
X156870270Y-103027529D01*
X156870269Y-103027529D01*
X156870268Y-103027528D01*
X156747265Y-102945340D01*
X156642660Y-102840735D01*
X156560472Y-102717732D01*
X156503860Y-102581059D01*
X156475980Y-102440893D01*
X156475000Y-102435968D01*
X156475000Y-102288032D01*
X156503860Y-102142941D01*
X156560471Y-102006270D01*
X156639175Y-101888481D01*
X156642660Y-101883265D01*
X156747265Y-101778660D01*
X156870268Y-101696472D01*
X157006941Y-101639860D01*
X157152032Y-101611000D01*
X157299968Y-101611000D01*
X157445059Y-101639860D01*
G37*
G36*
X169920228Y-100527703D02*
G01*
X170075100Y-100591853D01*
X170214481Y-100684985D01*
X170333015Y-100803519D01*
X170426147Y-100942900D01*
X170490297Y-101097772D01*
X170523000Y-101262184D01*
X170523000Y-101429816D01*
X170490297Y-101594228D01*
X170426147Y-101749100D01*
X170333015Y-101888481D01*
X170214481Y-102007015D01*
X170075100Y-102100147D01*
X169920228Y-102164297D01*
X169755816Y-102197000D01*
X169588184Y-102197000D01*
X169423772Y-102164297D01*
X169268900Y-102100147D01*
X169129519Y-102007015D01*
X169010985Y-101888481D01*
X168917853Y-101749100D01*
X168853703Y-101594228D01*
X168821000Y-101429816D01*
X168821000Y-101262184D01*
X168853703Y-101097772D01*
X168917853Y-100942900D01*
X169010985Y-100803519D01*
X169129519Y-100684985D01*
X169268900Y-100591853D01*
X169423772Y-100527703D01*
X169588184Y-100495000D01*
X169755816Y-100495000D01*
X169920228Y-100527703D01*
G37*
G36*
X162300228Y-100527703D02*
G01*
X162455100Y-100591853D01*
X162594481Y-100684985D01*
X162713015Y-100803519D01*
X162806147Y-100942900D01*
X162870297Y-101097772D01*
X162903000Y-101262184D01*
X162903000Y-101429816D01*
X162870297Y-101594228D01*
X162806147Y-101749100D01*
X162713015Y-101888481D01*
X162594481Y-102007015D01*
X162455100Y-102100147D01*
X162300228Y-102164297D01*
X162135816Y-102197000D01*
X161968184Y-102197000D01*
X161803772Y-102164297D01*
X161648900Y-102100147D01*
X161509519Y-102007015D01*
X161390985Y-101888481D01*
X161297853Y-101749100D01*
X161233703Y-101594228D01*
X161201000Y-101429816D01*
X161201000Y-101262184D01*
X161233703Y-101097772D01*
X161297853Y-100942900D01*
X161390985Y-100803519D01*
X161509519Y-100684985D01*
X161648900Y-100591853D01*
X161803772Y-100527703D01*
X161968184Y-100495000D01*
X162135816Y-100495000D01*
X162300228Y-100527703D01*
G37*
G36*
X112618318Y-99429153D02*
G01*
X112836885Y-99519687D01*
X112836887Y-99519688D01*
X113033593Y-99651122D01*
X113200878Y-99818407D01*
X113332312Y-100015113D01*
X113332313Y-100015115D01*
X113422847Y-100233682D01*
X113469000Y-100465710D01*
X113469000Y-100702290D01*
X113422847Y-100934318D01*
X113332313Y-101152885D01*
X113332312Y-101152887D01*
X113200878Y-101349593D01*
X113033593Y-101516878D01*
X112836887Y-101648312D01*
X112836886Y-101648313D01*
X112836885Y-101648313D01*
X112618318Y-101738847D01*
X112386290Y-101785000D01*
X112149710Y-101785000D01*
X111917682Y-101738847D01*
X111699115Y-101648313D01*
X111699114Y-101648313D01*
X111699113Y-101648312D01*
X111502407Y-101516878D01*
X111335122Y-101349593D01*
X111203688Y-101152887D01*
X111203687Y-101152885D01*
X111113153Y-100934318D01*
X111067000Y-100702290D01*
X111067000Y-100465710D01*
X111113153Y-100233682D01*
X111203687Y-100015115D01*
X111203688Y-100015113D01*
X111335122Y-99818407D01*
X111502407Y-99651122D01*
X111699113Y-99519688D01*
X111699115Y-99519687D01*
X111917682Y-99429153D01*
X112149710Y-99383000D01*
X112386290Y-99383000D01*
X112618318Y-99429153D01*
G37*
G36*
X149779000Y-100773000D02*
G01*
X147877000Y-100773000D01*
X147877000Y-98871000D01*
X149779000Y-98871000D01*
X149779000Y-100773000D01*
G37*
G36*
X182468318Y-97524153D02*
G01*
X182686885Y-97614687D01*
X182686887Y-97614688D01*
X182883593Y-97746122D01*
X183050878Y-97913407D01*
X183182312Y-98110113D01*
X183182313Y-98110115D01*
X183272847Y-98328682D01*
X183319000Y-98560710D01*
X183319000Y-98797290D01*
X183272847Y-99029318D01*
X183182313Y-99247885D01*
X183182312Y-99247887D01*
X183050878Y-99444593D01*
X182883593Y-99611878D01*
X182686887Y-99743312D01*
X182686886Y-99743313D01*
X182686885Y-99743313D01*
X182468318Y-99833847D01*
X182236290Y-99880000D01*
X181999710Y-99880000D01*
X181767682Y-99833847D01*
X181549115Y-99743313D01*
X181549114Y-99743313D01*
X181549113Y-99743312D01*
X181352407Y-99611878D01*
X181185122Y-99444593D01*
X181053688Y-99247887D01*
X181053687Y-99247885D01*
X180963153Y-99029318D01*
X180917000Y-98797290D01*
X180917000Y-98560710D01*
X180963153Y-98328682D01*
X181053687Y-98110115D01*
X181053688Y-98110113D01*
X181185122Y-97913407D01*
X181352407Y-97746122D01*
X181549113Y-97614688D01*
X181549115Y-97614687D01*
X181767682Y-97524153D01*
X181999710Y-97478000D01*
X182236290Y-97478000D01*
X182468318Y-97524153D01*
G37*
G36*
X169920228Y-97479703D02*
G01*
X170075100Y-97543853D01*
X170214481Y-97636985D01*
X170333015Y-97755519D01*
X170426147Y-97894900D01*
X170490297Y-98049772D01*
X170523000Y-98214184D01*
X170523000Y-98381816D01*
X170490297Y-98546228D01*
X170426147Y-98701100D01*
X170333015Y-98840481D01*
X170214481Y-98959015D01*
X170075100Y-99052147D01*
X169920228Y-99116297D01*
X169755816Y-99149000D01*
X169588184Y-99149000D01*
X169423772Y-99116297D01*
X169268900Y-99052147D01*
X169129519Y-98959015D01*
X169010985Y-98840481D01*
X168917853Y-98701100D01*
X168853703Y-98546228D01*
X168821000Y-98381816D01*
X168821000Y-98214184D01*
X168853703Y-98049772D01*
X168917853Y-97894900D01*
X169010985Y-97755519D01*
X169129519Y-97636985D01*
X169268900Y-97543853D01*
X169423772Y-97479703D01*
X169588184Y-97447000D01*
X169755816Y-97447000D01*
X169920228Y-97479703D01*
G37*
G36*
X162300228Y-97479703D02*
G01*
X162455100Y-97543853D01*
X162594481Y-97636985D01*
X162713015Y-97755519D01*
X162806147Y-97894900D01*
X162870297Y-98049772D01*
X162903000Y-98214184D01*
X162903000Y-98381816D01*
X162870297Y-98546228D01*
X162806147Y-98701100D01*
X162713015Y-98840481D01*
X162594481Y-98959015D01*
X162455100Y-99052147D01*
X162300228Y-99116297D01*
X162135816Y-99149000D01*
X161968184Y-99149000D01*
X161803772Y-99116297D01*
X161648900Y-99052147D01*
X161509519Y-98959015D01*
X161390985Y-98840481D01*
X161297853Y-98701100D01*
X161233703Y-98546228D01*
X161201000Y-98381816D01*
X161201000Y-98214184D01*
X161233703Y-98049772D01*
X161297853Y-97894900D01*
X161390985Y-97755519D01*
X161509519Y-97636985D01*
X161648900Y-97543853D01*
X161803772Y-97479703D01*
X161968184Y-97447000D01*
X162135816Y-97447000D01*
X162300228Y-97479703D01*
G37*
G36*
X149121395Y-96367546D02*
G01*
X149294466Y-96439234D01*
X149356973Y-96481000D01*
X149450227Y-96543310D01*
X149582690Y-96675773D01*
X149598899Y-96700032D01*
X149686766Y-96831534D01*
X149758454Y-97004605D01*
X149795000Y-97188333D01*
X149795000Y-97375667D01*
X149758454Y-97559395D01*
X149686766Y-97732466D01*
X149667877Y-97760735D01*
X149582690Y-97888227D01*
X149450227Y-98020690D01*
X149371818Y-98073081D01*
X149294466Y-98124766D01*
X149121395Y-98196454D01*
X148937667Y-98233000D01*
X148750333Y-98233000D01*
X148566605Y-98196454D01*
X148393534Y-98124766D01*
X148316182Y-98073081D01*
X148237773Y-98020690D01*
X148105310Y-97888227D01*
X148020123Y-97760735D01*
X148001234Y-97732466D01*
X147929546Y-97559395D01*
X147893000Y-97375667D01*
X147893000Y-97188333D01*
X147929546Y-97004605D01*
X148001234Y-96831534D01*
X148089101Y-96700032D01*
X148105310Y-96675773D01*
X148237773Y-96543310D01*
X148331027Y-96481000D01*
X148393534Y-96439234D01*
X148566605Y-96367546D01*
X148750333Y-96331000D01*
X148937667Y-96331000D01*
X149121395Y-96367546D01*
G37*
G36*
X154979000Y-98083000D02*
G01*
X153377000Y-98083000D01*
X153377000Y-96481000D01*
X154979000Y-96481000D01*
X154979000Y-98083000D01*
G37*
G36*
X157361850Y-96543309D02*
G01*
X157445059Y-96559860D01*
X157581732Y-96616472D01*
X157704735Y-96698660D01*
X157809340Y-96803265D01*
X157891528Y-96926268D01*
X157891529Y-96926270D01*
X157948140Y-97062941D01*
X157977000Y-97208032D01*
X157977000Y-97355968D01*
X157948140Y-97501059D01*
X157891838Y-97636985D01*
X157891528Y-97637732D01*
X157809340Y-97760735D01*
X157704735Y-97865340D01*
X157581732Y-97947528D01*
X157581731Y-97947529D01*
X157581730Y-97947529D01*
X157445059Y-98004140D01*
X157299968Y-98033000D01*
X157152032Y-98033000D01*
X157006941Y-98004140D01*
X156870270Y-97947529D01*
X156870269Y-97947529D01*
X156870268Y-97947528D01*
X156747265Y-97865340D01*
X156642660Y-97760735D01*
X156560472Y-97637732D01*
X156560163Y-97636985D01*
X156503860Y-97501059D01*
X156475000Y-97355968D01*
X156475000Y-97208032D01*
X156503860Y-97062941D01*
X156560471Y-96926270D01*
X156560472Y-96926268D01*
X156642660Y-96803265D01*
X156747265Y-96698660D01*
X156870268Y-96616472D01*
X157006941Y-96559860D01*
X157090150Y-96543309D01*
X157152032Y-96531000D01*
X157299968Y-96531000D01*
X157361850Y-96543309D01*
G37*
G36*
X139948228Y-95955703D02*
G01*
X140103100Y-96019853D01*
X140242481Y-96112985D01*
X140361015Y-96231519D01*
X140454147Y-96370900D01*
X140518297Y-96525772D01*
X140551000Y-96690184D01*
X140551000Y-96857816D01*
X140518297Y-97022228D01*
X140454147Y-97177100D01*
X140361015Y-97316481D01*
X140242481Y-97435015D01*
X140103100Y-97528147D01*
X139948228Y-97592297D01*
X139783816Y-97625000D01*
X139616184Y-97625000D01*
X139451772Y-97592297D01*
X139296900Y-97528147D01*
X139157519Y-97435015D01*
X139038985Y-97316481D01*
X138945853Y-97177100D01*
X138881703Y-97022228D01*
X138849000Y-96857816D01*
X138849000Y-96690184D01*
X138881703Y-96525772D01*
X138945853Y-96370900D01*
X139038985Y-96231519D01*
X139157519Y-96112985D01*
X139296900Y-96019853D01*
X139451772Y-95955703D01*
X139616184Y-95923000D01*
X139783816Y-95923000D01*
X139948228Y-95955703D01*
G37*
G36*
X132328228Y-95955703D02*
G01*
X132483100Y-96019853D01*
X132622481Y-96112985D01*
X132741015Y-96231519D01*
X132834147Y-96370900D01*
X132898297Y-96525772D01*
X132931000Y-96690184D01*
X132931000Y-96857816D01*
X132898297Y-97022228D01*
X132834147Y-97177100D01*
X132741015Y-97316481D01*
X132622481Y-97435015D01*
X132483100Y-97528147D01*
X132328228Y-97592297D01*
X132163816Y-97625000D01*
X131996184Y-97625000D01*
X131831772Y-97592297D01*
X131676900Y-97528147D01*
X131537519Y-97435015D01*
X131418985Y-97316481D01*
X131325853Y-97177100D01*
X131261703Y-97022228D01*
X131229000Y-96857816D01*
X131229000Y-96690184D01*
X131261703Y-96525772D01*
X131325853Y-96370900D01*
X131418985Y-96231519D01*
X131537519Y-96112985D01*
X131676900Y-96019853D01*
X131831772Y-95955703D01*
X131996184Y-95923000D01*
X132163816Y-95923000D01*
X132328228Y-95955703D01*
G37*
G36*
X142713059Y-96051860D02*
G01*
X142842961Y-96105667D01*
X142849732Y-96108472D01*
X142972735Y-96190660D01*
X143077340Y-96295265D01*
X143159528Y-96418268D01*
X143159529Y-96418270D01*
X143216140Y-96554941D01*
X143245000Y-96700032D01*
X143245000Y-96847968D01*
X143229388Y-96926454D01*
X143216140Y-96993059D01*
X143159528Y-97129732D01*
X143077340Y-97252735D01*
X142972735Y-97357340D01*
X142849732Y-97439528D01*
X142849731Y-97439529D01*
X142849730Y-97439529D01*
X142713059Y-97496140D01*
X142567968Y-97525000D01*
X142420032Y-97525000D01*
X142274941Y-97496140D01*
X142138270Y-97439529D01*
X142138269Y-97439529D01*
X142138268Y-97439528D01*
X142015265Y-97357340D01*
X141910660Y-97252735D01*
X141828472Y-97129732D01*
X141771860Y-96993059D01*
X141758612Y-96926454D01*
X141743000Y-96847968D01*
X141743000Y-96700032D01*
X141771860Y-96554941D01*
X141828471Y-96418270D01*
X141828472Y-96418268D01*
X141910660Y-96295265D01*
X142015265Y-96190660D01*
X142138268Y-96108472D01*
X142145040Y-96105667D01*
X142274941Y-96051860D01*
X142420032Y-96023000D01*
X142567968Y-96023000D01*
X142713059Y-96051860D01*
G37*
G36*
X120585000Y-96963000D02*
G01*
X118683000Y-96963000D01*
X118683000Y-95061000D01*
X120585000Y-95061000D01*
X120585000Y-96963000D01*
G37*
G36*
X127531395Y-95097546D02*
G01*
X127704466Y-95169234D01*
X127704467Y-95169235D01*
X127860227Y-95273310D01*
X127992690Y-95405773D01*
X127992691Y-95405775D01*
X128096766Y-95561534D01*
X128168454Y-95734605D01*
X128205000Y-95918333D01*
X128205000Y-96105667D01*
X128168454Y-96289395D01*
X128096766Y-96462466D01*
X128096765Y-96462467D01*
X127992690Y-96618227D01*
X127860227Y-96750690D01*
X127781818Y-96803081D01*
X127704466Y-96854766D01*
X127531395Y-96926454D01*
X127347667Y-96963000D01*
X127160333Y-96963000D01*
X126976605Y-96926454D01*
X126803534Y-96854766D01*
X126726182Y-96803081D01*
X126647773Y-96750690D01*
X126515310Y-96618227D01*
X126411235Y-96462467D01*
X126411234Y-96462466D01*
X126339546Y-96289395D01*
X126303000Y-96105667D01*
X126303000Y-95918333D01*
X126339546Y-95734605D01*
X126411234Y-95561534D01*
X126515309Y-95405775D01*
X126515310Y-95405773D01*
X126647773Y-95273310D01*
X126803533Y-95169235D01*
X126803534Y-95169234D01*
X126976605Y-95097546D01*
X127160333Y-95061000D01*
X127347667Y-95061000D01*
X127531395Y-95097546D01*
G37*
G36*
X112618318Y-94349153D02*
G01*
X112836885Y-94439687D01*
X112836887Y-94439688D01*
X113033593Y-94571122D01*
X113200878Y-94738407D01*
X113332312Y-94935113D01*
X113332313Y-94935115D01*
X113422847Y-95153682D01*
X113469000Y-95385710D01*
X113469000Y-95622290D01*
X113422847Y-95854318D01*
X113352976Y-96023000D01*
X113332312Y-96072887D01*
X113200878Y-96269593D01*
X113033593Y-96436878D01*
X112836887Y-96568312D01*
X112836886Y-96568313D01*
X112836885Y-96568313D01*
X112618318Y-96658847D01*
X112386290Y-96705000D01*
X112149710Y-96705000D01*
X111917682Y-96658847D01*
X111699115Y-96568313D01*
X111699114Y-96568313D01*
X111699113Y-96568312D01*
X111502407Y-96436878D01*
X111335122Y-96269593D01*
X111203688Y-96072887D01*
X111183024Y-96023000D01*
X111113153Y-95854318D01*
X111067000Y-95622290D01*
X111067000Y-95385710D01*
X111113153Y-95153682D01*
X111203687Y-94935115D01*
X111203688Y-94935113D01*
X111335122Y-94738407D01*
X111502407Y-94571122D01*
X111699113Y-94439688D01*
X111699115Y-94439687D01*
X111917682Y-94349153D01*
X112149710Y-94303000D01*
X112386290Y-94303000D01*
X112618318Y-94349153D01*
G37*
G36*
X151871642Y-93971781D02*
G01*
X152017414Y-94032162D01*
X152017416Y-94032163D01*
X152148608Y-94119822D01*
X152260178Y-94231392D01*
X152338863Y-94349154D01*
X152347838Y-94362586D01*
X152408219Y-94508358D01*
X152439000Y-94663107D01*
X152439000Y-94820893D01*
X152408219Y-94975642D01*
X152376468Y-95052295D01*
X152347837Y-95121416D01*
X152260178Y-95252608D01*
X152148608Y-95364178D01*
X152017416Y-95451837D01*
X152017415Y-95451838D01*
X152017414Y-95451838D01*
X151871642Y-95512219D01*
X151716893Y-95543000D01*
X151559107Y-95543000D01*
X151404358Y-95512219D01*
X151258586Y-95451838D01*
X151258585Y-95451838D01*
X151258584Y-95451837D01*
X151127392Y-95364178D01*
X151015822Y-95252608D01*
X150928163Y-95121416D01*
X150899532Y-95052295D01*
X150867781Y-94975642D01*
X150837000Y-94820893D01*
X150837000Y-94663107D01*
X150867781Y-94508358D01*
X150928162Y-94362586D01*
X150937137Y-94349154D01*
X151015822Y-94231392D01*
X151127392Y-94119822D01*
X151258584Y-94032163D01*
X151258586Y-94032162D01*
X151404358Y-93971781D01*
X151559107Y-93941000D01*
X151716893Y-93941000D01*
X151871642Y-93971781D01*
G37*
G36*
X132328228Y-93415703D02*
G01*
X132483100Y-93479853D01*
X132622481Y-93572985D01*
X132741015Y-93691519D01*
X132834147Y-93830900D01*
X132898297Y-93985772D01*
X132931000Y-94150184D01*
X132931000Y-94317816D01*
X132898297Y-94482228D01*
X132834147Y-94637100D01*
X132741015Y-94776481D01*
X132622481Y-94895015D01*
X132483100Y-94988147D01*
X132328228Y-95052297D01*
X132163816Y-95085000D01*
X131996184Y-95085000D01*
X131831772Y-95052297D01*
X131676900Y-94988147D01*
X131537519Y-94895015D01*
X131418985Y-94776481D01*
X131325853Y-94637100D01*
X131261703Y-94482228D01*
X131229000Y-94317816D01*
X131229000Y-94150184D01*
X131261703Y-93985772D01*
X131325853Y-93830900D01*
X131418985Y-93691519D01*
X131537519Y-93572985D01*
X131676900Y-93479853D01*
X131831772Y-93415703D01*
X131996184Y-93383000D01*
X132163816Y-93383000D01*
X132328228Y-93415703D01*
G37*
G36*
X139948228Y-93415703D02*
G01*
X140103100Y-93479853D01*
X140242481Y-93572985D01*
X140361015Y-93691519D01*
X140454147Y-93830900D01*
X140518297Y-93985772D01*
X140551000Y-94150184D01*
X140551000Y-94317816D01*
X140518297Y-94482228D01*
X140454147Y-94637100D01*
X140361015Y-94776481D01*
X140242481Y-94895015D01*
X140103100Y-94988147D01*
X139948228Y-95052297D01*
X139783816Y-95085000D01*
X139616184Y-95085000D01*
X139451772Y-95052297D01*
X139296900Y-94988147D01*
X139157519Y-94895015D01*
X139038985Y-94776481D01*
X138945853Y-94637100D01*
X138881703Y-94482228D01*
X138849000Y-94317816D01*
X138849000Y-94150184D01*
X138881703Y-93985772D01*
X138945853Y-93830900D01*
X139038985Y-93691519D01*
X139157519Y-93572985D01*
X139296900Y-93479853D01*
X139451772Y-93415703D01*
X139616184Y-93383000D01*
X139783816Y-93383000D01*
X139948228Y-93415703D01*
G37*
G36*
X182468318Y-92444153D02*
G01*
X182686885Y-92534687D01*
X182686887Y-92534688D01*
X182883593Y-92666122D01*
X183050878Y-92833407D01*
X183182312Y-93030113D01*
X183182313Y-93030115D01*
X183272847Y-93248682D01*
X183319000Y-93480710D01*
X183319000Y-93717290D01*
X183272847Y-93949318D01*
X183182313Y-94167885D01*
X183182312Y-94167887D01*
X183050878Y-94364593D01*
X182883593Y-94531878D01*
X182686887Y-94663312D01*
X182686886Y-94663313D01*
X182686885Y-94663313D01*
X182468318Y-94753847D01*
X182236290Y-94800000D01*
X181999710Y-94800000D01*
X181767682Y-94753847D01*
X181549115Y-94663313D01*
X181549114Y-94663313D01*
X181549113Y-94663312D01*
X181352407Y-94531878D01*
X181185122Y-94364593D01*
X181053688Y-94167887D01*
X181053687Y-94167885D01*
X180963153Y-93949318D01*
X180917000Y-93717290D01*
X180917000Y-93480710D01*
X180963153Y-93248682D01*
X181053687Y-93030115D01*
X181053688Y-93030113D01*
X181185122Y-92833407D01*
X181352407Y-92666122D01*
X181549113Y-92534688D01*
X181549115Y-92534687D01*
X181767682Y-92444153D01*
X181999710Y-92398000D01*
X182236290Y-92398000D01*
X182468318Y-92444153D01*
G37*
G36*
X154411642Y-91431781D02*
G01*
X154527714Y-91479860D01*
X154557416Y-91492163D01*
X154688608Y-91579822D01*
X154800178Y-91691392D01*
X154857924Y-91777816D01*
X154887838Y-91822586D01*
X154948219Y-91968358D01*
X154979000Y-92123107D01*
X154979000Y-92280893D01*
X154948219Y-92435642D01*
X154902921Y-92545000D01*
X154887837Y-92581416D01*
X154800178Y-92712608D01*
X154688608Y-92824178D01*
X154557416Y-92911837D01*
X154557415Y-92911838D01*
X154557414Y-92911838D01*
X154411642Y-92972219D01*
X154256893Y-93003000D01*
X154099107Y-93003000D01*
X153944358Y-92972219D01*
X153798586Y-92911838D01*
X153798585Y-92911838D01*
X153798584Y-92911837D01*
X153667392Y-92824178D01*
X153555822Y-92712608D01*
X153468163Y-92581416D01*
X153453079Y-92545000D01*
X153407781Y-92435642D01*
X153377000Y-92280893D01*
X153377000Y-92123107D01*
X153407781Y-91968358D01*
X153468162Y-91822586D01*
X153498076Y-91777816D01*
X153555822Y-91691392D01*
X153667392Y-91579822D01*
X153798584Y-91492163D01*
X153828286Y-91479860D01*
X153944358Y-91431781D01*
X154099107Y-91401000D01*
X154256893Y-91401000D01*
X154411642Y-91431781D01*
G37*
G36*
X157420329Y-91474941D02*
G01*
X157445059Y-91479860D01*
X157581732Y-91536472D01*
X157704735Y-91618660D01*
X157809340Y-91723265D01*
X157855419Y-91792227D01*
X157891529Y-91846270D01*
X157948140Y-91982941D01*
X157977000Y-92128032D01*
X157977000Y-92275968D01*
X157976020Y-92280893D01*
X157948140Y-92421059D01*
X157891528Y-92557732D01*
X157809340Y-92680735D01*
X157704735Y-92785340D01*
X157581732Y-92867528D01*
X157581731Y-92867529D01*
X157581730Y-92867529D01*
X157445059Y-92924140D01*
X157299968Y-92953000D01*
X157152032Y-92953000D01*
X157006941Y-92924140D01*
X156870270Y-92867529D01*
X156870269Y-92867529D01*
X156870268Y-92867528D01*
X156747265Y-92785340D01*
X156642660Y-92680735D01*
X156560472Y-92557732D01*
X156503860Y-92421059D01*
X156475980Y-92280893D01*
X156475000Y-92275968D01*
X156475000Y-92128032D01*
X156503860Y-91982941D01*
X156560471Y-91846270D01*
X156596581Y-91792227D01*
X156642660Y-91723265D01*
X156747265Y-91618660D01*
X156870268Y-91536472D01*
X157006941Y-91479860D01*
X157031671Y-91474941D01*
X157152032Y-91451000D01*
X157299968Y-91451000D01*
X157420329Y-91474941D01*
G37*
G36*
X132931000Y-92545000D02*
G01*
X131229000Y-92545000D01*
X131229000Y-90843000D01*
X132931000Y-90843000D01*
X132931000Y-92545000D01*
G37*
G36*
X139948228Y-90875703D02*
G01*
X140103100Y-90939853D01*
X140242481Y-91032985D01*
X140361015Y-91151519D01*
X140454147Y-91290900D01*
X140518297Y-91445772D01*
X140551000Y-91610184D01*
X140551000Y-91777816D01*
X140518297Y-91942228D01*
X140454147Y-92097100D01*
X140361015Y-92236481D01*
X140242481Y-92355015D01*
X140103100Y-92448147D01*
X139948228Y-92512297D01*
X139783816Y-92545000D01*
X139616184Y-92545000D01*
X139451772Y-92512297D01*
X139296900Y-92448147D01*
X139157519Y-92355015D01*
X139038985Y-92236481D01*
X138945853Y-92097100D01*
X138881703Y-91942228D01*
X138849000Y-91777816D01*
X138849000Y-91610184D01*
X138881703Y-91445772D01*
X138945853Y-91290900D01*
X139038985Y-91151519D01*
X139157519Y-91032985D01*
X139296900Y-90939853D01*
X139451772Y-90875703D01*
X139616184Y-90843000D01*
X139783816Y-90843000D01*
X139948228Y-90875703D01*
G37*
G36*
X142713059Y-90971860D02*
G01*
X142849732Y-91028472D01*
X142972735Y-91110660D01*
X143077340Y-91215265D01*
X143159528Y-91338268D01*
X143159529Y-91338270D01*
X143216140Y-91474941D01*
X143245000Y-91620032D01*
X143245000Y-91767968D01*
X143216140Y-91913059D01*
X143168213Y-92028766D01*
X143159528Y-92049732D01*
X143077340Y-92172735D01*
X142972735Y-92277340D01*
X142849732Y-92359528D01*
X142849731Y-92359529D01*
X142849730Y-92359529D01*
X142713059Y-92416140D01*
X142567968Y-92445000D01*
X142420032Y-92445000D01*
X142274941Y-92416140D01*
X142138270Y-92359529D01*
X142138269Y-92359529D01*
X142138268Y-92359528D01*
X142015265Y-92277340D01*
X141910660Y-92172735D01*
X141828472Y-92049732D01*
X141819788Y-92028766D01*
X141771860Y-91913059D01*
X141743000Y-91767968D01*
X141743000Y-91620032D01*
X141771860Y-91474941D01*
X141828471Y-91338270D01*
X141828472Y-91338268D01*
X141910660Y-91215265D01*
X142015265Y-91110660D01*
X142138268Y-91028472D01*
X142274941Y-90971860D01*
X142420032Y-90943000D01*
X142567968Y-90943000D01*
X142713059Y-90971860D01*
G37*
G36*
X128205000Y-92137000D02*
G01*
X126303000Y-92137000D01*
X126303000Y-90235000D01*
X128205000Y-90235000D01*
X128205000Y-92137000D01*
G37*
G36*
X119911395Y-90271546D02*
G01*
X120084466Y-90343234D01*
X120084467Y-90343235D01*
X120240227Y-90447310D01*
X120372690Y-90579773D01*
X120372691Y-90579775D01*
X120476766Y-90735534D01*
X120548454Y-90908605D01*
X120585000Y-91092333D01*
X120585000Y-91279667D01*
X120548454Y-91463395D01*
X120476766Y-91636466D01*
X120440065Y-91691393D01*
X120372690Y-91792227D01*
X120240227Y-91924690D01*
X120213979Y-91942228D01*
X120084466Y-92028766D01*
X119911395Y-92100454D01*
X119727667Y-92137000D01*
X119540333Y-92137000D01*
X119356605Y-92100454D01*
X119183534Y-92028766D01*
X119054021Y-91942228D01*
X119027773Y-91924690D01*
X118895310Y-91792227D01*
X118827935Y-91691393D01*
X118791234Y-91636466D01*
X118719546Y-91463395D01*
X118683000Y-91279667D01*
X118683000Y-91092333D01*
X118719546Y-90908605D01*
X118791234Y-90735534D01*
X118895309Y-90579775D01*
X118895310Y-90579773D01*
X119027773Y-90447310D01*
X119183533Y-90343235D01*
X119183534Y-90343234D01*
X119356605Y-90271546D01*
X119540333Y-90235000D01*
X119727667Y-90235000D01*
X119911395Y-90271546D01*
G37*
G36*
X149795000Y-90613000D02*
G01*
X147893000Y-90613000D01*
X147893000Y-88711000D01*
X149795000Y-88711000D01*
X149795000Y-90613000D01*
G37*
G36*
X182342549Y-87390116D02*
G01*
X182453734Y-87412232D01*
X182663203Y-87498997D01*
X182851720Y-87624960D01*
X183012040Y-87785280D01*
X183138003Y-87973797D01*
X183224768Y-88183266D01*
X183269000Y-88405636D01*
X183269000Y-88632364D01*
X183224768Y-88854734D01*
X183138003Y-89064203D01*
X183012040Y-89252720D01*
X182851720Y-89413040D01*
X182663203Y-89539003D01*
X182453734Y-89625768D01*
X182342549Y-89647884D01*
X182231365Y-89670000D01*
X182004635Y-89670000D01*
X181893451Y-89647884D01*
X181782266Y-89625768D01*
X181572797Y-89539003D01*
X181384280Y-89413040D01*
X181223960Y-89252720D01*
X181097997Y-89064203D01*
X181011232Y-88854734D01*
X180967000Y-88632364D01*
X180967000Y-88405636D01*
X181011232Y-88183266D01*
X181097997Y-87973797D01*
X181223960Y-87785280D01*
X181384280Y-87624960D01*
X181572797Y-87498997D01*
X181782266Y-87412232D01*
X181893451Y-87390116D01*
X182004635Y-87368000D01*
X182231365Y-87368000D01*
X182342549Y-87390116D01*
G37*
G36*
X131312228Y-85795703D02*
G01*
X131467100Y-85859853D01*
X131606481Y-85952985D01*
X131725015Y-86071519D01*
X131818147Y-86210900D01*
X131882297Y-86365772D01*
X131915000Y-86530184D01*
X131915000Y-86697816D01*
X131882297Y-86862228D01*
X131818147Y-87017100D01*
X131725015Y-87156481D01*
X131606481Y-87275015D01*
X131467100Y-87368147D01*
X131312228Y-87432297D01*
X131147816Y-87465000D01*
X130980184Y-87465000D01*
X130815772Y-87432297D01*
X130660900Y-87368147D01*
X130521519Y-87275015D01*
X130402985Y-87156481D01*
X130309853Y-87017100D01*
X130245703Y-86862228D01*
X130213000Y-86697816D01*
X130213000Y-86530184D01*
X130245703Y-86365772D01*
X130309853Y-86210900D01*
X130402985Y-86071519D01*
X130521519Y-85952985D01*
X130660900Y-85859853D01*
X130815772Y-85795703D01*
X130980184Y-85763000D01*
X131147816Y-85763000D01*
X131312228Y-85795703D01*
G37*
G36*
X118612228Y-85795703D02*
G01*
X118767100Y-85859853D01*
X118906481Y-85952985D01*
X119025015Y-86071519D01*
X119118147Y-86210900D01*
X119182297Y-86365772D01*
X119215000Y-86530184D01*
X119215000Y-86697816D01*
X119182297Y-86862228D01*
X119118147Y-87017100D01*
X119025015Y-87156481D01*
X118906481Y-87275015D01*
X118767100Y-87368147D01*
X118612228Y-87432297D01*
X118447816Y-87465000D01*
X118280184Y-87465000D01*
X118115772Y-87432297D01*
X117960900Y-87368147D01*
X117821519Y-87275015D01*
X117702985Y-87156481D01*
X117609853Y-87017100D01*
X117545703Y-86862228D01*
X117513000Y-86697816D01*
X117513000Y-86530184D01*
X117545703Y-86365772D01*
X117609853Y-86210900D01*
X117702985Y-86071519D01*
X117821519Y-85952985D01*
X117960900Y-85859853D01*
X118115772Y-85795703D01*
X118280184Y-85763000D01*
X118447816Y-85763000D01*
X118612228Y-85795703D01*
G37*
G36*
X164817142Y-85832242D02*
G01*
X164965101Y-85893529D01*
X165098255Y-85982499D01*
X165211501Y-86095745D01*
X165300471Y-86228899D01*
X165361758Y-86376858D01*
X165393000Y-86533925D01*
X165393000Y-86694075D01*
X165361758Y-86851142D01*
X165300471Y-86999101D01*
X165211501Y-87132255D01*
X165098255Y-87245501D01*
X164965101Y-87334471D01*
X164817142Y-87395758D01*
X164660075Y-87427000D01*
X164499925Y-87427000D01*
X164342858Y-87395758D01*
X164194899Y-87334471D01*
X164061745Y-87245501D01*
X163948499Y-87132255D01*
X163859529Y-86999101D01*
X163798242Y-86851142D01*
X163767000Y-86694075D01*
X163767000Y-86533925D01*
X163798242Y-86376858D01*
X163859529Y-86228899D01*
X163948499Y-86095745D01*
X164061745Y-85982499D01*
X164194899Y-85893529D01*
X164342858Y-85832242D01*
X164499925Y-85801000D01*
X164660075Y-85801000D01*
X164817142Y-85832242D01*
G37*
G36*
X149577142Y-85832242D02*
G01*
X149725101Y-85893529D01*
X149858255Y-85982499D01*
X149971501Y-86095745D01*
X150060471Y-86228899D01*
X150121758Y-86376858D01*
X150153000Y-86533925D01*
X150153000Y-86694075D01*
X150121758Y-86851142D01*
X150060471Y-86999101D01*
X149971501Y-87132255D01*
X149858255Y-87245501D01*
X149725101Y-87334471D01*
X149577142Y-87395758D01*
X149420075Y-87427000D01*
X149259925Y-87427000D01*
X149102858Y-87395758D01*
X148954899Y-87334471D01*
X148821745Y-87245501D01*
X148708499Y-87132255D01*
X148619529Y-86999101D01*
X148558242Y-86851142D01*
X148527000Y-86694075D01*
X148527000Y-86533925D01*
X148558242Y-86376858D01*
X148619529Y-86228899D01*
X148708499Y-86095745D01*
X148821745Y-85982499D01*
X148954899Y-85893529D01*
X149102858Y-85832242D01*
X149259925Y-85801000D01*
X149420075Y-85801000D01*
X149577142Y-85832242D01*
G37*
G36*
X147037142Y-85832242D02*
G01*
X147185101Y-85893529D01*
X147318255Y-85982499D01*
X147431501Y-86095745D01*
X147520471Y-86228899D01*
X147581758Y-86376858D01*
X147613000Y-86533925D01*
X147613000Y-86694075D01*
X147581758Y-86851142D01*
X147520471Y-86999101D01*
X147431501Y-87132255D01*
X147318255Y-87245501D01*
X147185101Y-87334471D01*
X147037142Y-87395758D01*
X146880075Y-87427000D01*
X146719925Y-87427000D01*
X146562858Y-87395758D01*
X146414899Y-87334471D01*
X146281745Y-87245501D01*
X146168499Y-87132255D01*
X146079529Y-86999101D01*
X146018242Y-86851142D01*
X145987000Y-86694075D01*
X145987000Y-86533925D01*
X146018242Y-86376858D01*
X146079529Y-86228899D01*
X146168499Y-86095745D01*
X146281745Y-85982499D01*
X146414899Y-85893529D01*
X146562858Y-85832242D01*
X146719925Y-85801000D01*
X146880075Y-85801000D01*
X147037142Y-85832242D01*
G37*
G36*
X152117142Y-85832242D02*
G01*
X152265101Y-85893529D01*
X152398255Y-85982499D01*
X152511501Y-86095745D01*
X152600471Y-86228899D01*
X152661758Y-86376858D01*
X152693000Y-86533925D01*
X152693000Y-86694075D01*
X152661758Y-86851142D01*
X152600471Y-86999101D01*
X152511501Y-87132255D01*
X152398255Y-87245501D01*
X152265101Y-87334471D01*
X152117142Y-87395758D01*
X151960075Y-87427000D01*
X151799925Y-87427000D01*
X151642858Y-87395758D01*
X151494899Y-87334471D01*
X151361745Y-87245501D01*
X151248499Y-87132255D01*
X151159529Y-86999101D01*
X151098242Y-86851142D01*
X151067000Y-86694075D01*
X151067000Y-86533925D01*
X151098242Y-86376858D01*
X151159529Y-86228899D01*
X151248499Y-86095745D01*
X151361745Y-85982499D01*
X151494899Y-85893529D01*
X151642858Y-85832242D01*
X151799925Y-85801000D01*
X151960075Y-85801000D01*
X152117142Y-85832242D01*
G37*
G36*
X154657142Y-85832242D02*
G01*
X154805101Y-85893529D01*
X154938255Y-85982499D01*
X155051501Y-86095745D01*
X155140471Y-86228899D01*
X155201758Y-86376858D01*
X155233000Y-86533925D01*
X155233000Y-86694075D01*
X155201758Y-86851142D01*
X155140471Y-86999101D01*
X155051501Y-87132255D01*
X154938255Y-87245501D01*
X154805101Y-87334471D01*
X154657142Y-87395758D01*
X154500075Y-87427000D01*
X154339925Y-87427000D01*
X154182858Y-87395758D01*
X154034899Y-87334471D01*
X153901745Y-87245501D01*
X153788499Y-87132255D01*
X153699529Y-86999101D01*
X153638242Y-86851142D01*
X153607000Y-86694075D01*
X153607000Y-86533925D01*
X153638242Y-86376858D01*
X153699529Y-86228899D01*
X153788499Y-86095745D01*
X153901745Y-85982499D01*
X154034899Y-85893529D01*
X154182858Y-85832242D01*
X154339925Y-85801000D01*
X154500075Y-85801000D01*
X154657142Y-85832242D01*
G37*
G36*
X157197142Y-85832242D02*
G01*
X157345101Y-85893529D01*
X157478255Y-85982499D01*
X157591501Y-86095745D01*
X157680471Y-86228899D01*
X157741758Y-86376858D01*
X157773000Y-86533925D01*
X157773000Y-86694075D01*
X157741758Y-86851142D01*
X157680471Y-86999101D01*
X157591501Y-87132255D01*
X157478255Y-87245501D01*
X157345101Y-87334471D01*
X157197142Y-87395758D01*
X157040075Y-87427000D01*
X156879925Y-87427000D01*
X156722858Y-87395758D01*
X156574899Y-87334471D01*
X156441745Y-87245501D01*
X156328499Y-87132255D01*
X156239529Y-86999101D01*
X156178242Y-86851142D01*
X156147000Y-86694075D01*
X156147000Y-86533925D01*
X156178242Y-86376858D01*
X156239529Y-86228899D01*
X156328499Y-86095745D01*
X156441745Y-85982499D01*
X156574899Y-85893529D01*
X156722858Y-85832242D01*
X156879925Y-85801000D01*
X157040075Y-85801000D01*
X157197142Y-85832242D01*
G37*
G36*
X159737142Y-85832242D02*
G01*
X159885101Y-85893529D01*
X160018255Y-85982499D01*
X160131501Y-86095745D01*
X160220471Y-86228899D01*
X160281758Y-86376858D01*
X160313000Y-86533925D01*
X160313000Y-86694075D01*
X160281758Y-86851142D01*
X160220471Y-86999101D01*
X160131501Y-87132255D01*
X160018255Y-87245501D01*
X159885101Y-87334471D01*
X159737142Y-87395758D01*
X159580075Y-87427000D01*
X159419925Y-87427000D01*
X159262858Y-87395758D01*
X159114899Y-87334471D01*
X158981745Y-87245501D01*
X158868499Y-87132255D01*
X158779529Y-86999101D01*
X158718242Y-86851142D01*
X158687000Y-86694075D01*
X158687000Y-86533925D01*
X158718242Y-86376858D01*
X158779529Y-86228899D01*
X158868499Y-86095745D01*
X158981745Y-85982499D01*
X159114899Y-85893529D01*
X159262858Y-85832242D01*
X159419925Y-85801000D01*
X159580075Y-85801000D01*
X159737142Y-85832242D01*
G37*
G36*
X162277142Y-85832242D02*
G01*
X162425101Y-85893529D01*
X162558255Y-85982499D01*
X162671501Y-86095745D01*
X162760471Y-86228899D01*
X162821758Y-86376858D01*
X162853000Y-86533925D01*
X162853000Y-86694075D01*
X162821758Y-86851142D01*
X162760471Y-86999101D01*
X162671501Y-87132255D01*
X162558255Y-87245501D01*
X162425101Y-87334471D01*
X162277142Y-87395758D01*
X162120075Y-87427000D01*
X161959925Y-87427000D01*
X161802858Y-87395758D01*
X161654899Y-87334471D01*
X161521745Y-87245501D01*
X161408499Y-87132255D01*
X161319529Y-86999101D01*
X161258242Y-86851142D01*
X161227000Y-86694075D01*
X161227000Y-86533925D01*
X161258242Y-86376858D01*
X161319529Y-86228899D01*
X161408499Y-86095745D01*
X161521745Y-85982499D01*
X161654899Y-85893529D01*
X161802858Y-85832242D01*
X161959925Y-85801000D01*
X162120075Y-85801000D01*
X162277142Y-85832242D01*
G37*
G36*
X112618318Y-79617153D02*
G01*
X112836885Y-79707687D01*
X112836887Y-79707688D01*
X113033593Y-79839122D01*
X113200878Y-80006407D01*
X113214874Y-80027354D01*
X113332313Y-80203115D01*
X113422847Y-80421682D01*
X113469000Y-80653710D01*
X113469000Y-80890290D01*
X113422847Y-81122318D01*
X113397773Y-81182851D01*
X113332312Y-81340887D01*
X113200878Y-81537593D01*
X113033593Y-81704878D01*
X112836887Y-81836312D01*
X112836886Y-81836313D01*
X112836885Y-81836313D01*
X112618318Y-81926847D01*
X112386290Y-81973000D01*
X112149710Y-81973000D01*
X111917682Y-81926847D01*
X111699115Y-81836313D01*
X111699114Y-81836313D01*
X111699113Y-81836312D01*
X111502407Y-81704878D01*
X111335122Y-81537593D01*
X111203688Y-81340887D01*
X111138227Y-81182851D01*
X111113153Y-81122318D01*
X111067000Y-80890290D01*
X111067000Y-80653710D01*
X111113153Y-80421682D01*
X111203687Y-80203115D01*
X111321126Y-80027354D01*
X111335122Y-80006407D01*
X111502407Y-79839122D01*
X111699113Y-79707688D01*
X111699115Y-79707687D01*
X111917682Y-79617153D01*
X112149710Y-79571000D01*
X112386290Y-79571000D01*
X112618318Y-79617153D01*
G37*
G36*
X167871383Y-79351349D02*
G01*
X167966147Y-79370199D01*
X168144678Y-79444149D01*
X168305351Y-79551507D01*
X168441993Y-79688149D01*
X168549351Y-79848822D01*
X168614625Y-80006408D01*
X168623301Y-80027354D01*
X168661000Y-80216879D01*
X168661000Y-80410121D01*
X168658700Y-80421682D01*
X168623301Y-80599647D01*
X168549351Y-80778178D01*
X168441993Y-80938851D01*
X168305351Y-81075493D01*
X168144678Y-81182851D01*
X167966147Y-81256801D01*
X167871383Y-81275651D01*
X167776621Y-81294500D01*
X167583379Y-81294500D01*
X167488617Y-81275651D01*
X167393853Y-81256801D01*
X167215322Y-81182851D01*
X167054649Y-81075493D01*
X166918007Y-80938851D01*
X166810649Y-80778178D01*
X166736699Y-80599647D01*
X166701300Y-80421682D01*
X166699000Y-80410121D01*
X166699000Y-80216879D01*
X166736699Y-80027354D01*
X166745375Y-80006408D01*
X166810649Y-79848822D01*
X166918007Y-79688149D01*
X167054649Y-79551507D01*
X167215322Y-79444149D01*
X167393853Y-79370199D01*
X167488617Y-79351349D01*
X167583379Y-79332500D01*
X167776621Y-79332500D01*
X167871383Y-79351349D01*
G37*
G36*
X122871383Y-79351349D02*
G01*
X122966147Y-79370199D01*
X123144678Y-79444149D01*
X123305351Y-79551507D01*
X123441993Y-79688149D01*
X123549351Y-79848822D01*
X123614625Y-80006408D01*
X123623301Y-80027354D01*
X123661000Y-80216879D01*
X123661000Y-80410121D01*
X123658700Y-80421682D01*
X123623301Y-80599647D01*
X123549351Y-80778178D01*
X123441993Y-80938851D01*
X123305351Y-81075493D01*
X123144678Y-81182851D01*
X122966147Y-81256801D01*
X122871383Y-81275651D01*
X122776621Y-81294500D01*
X122583379Y-81294500D01*
X122488617Y-81275651D01*
X122393853Y-81256801D01*
X122215322Y-81182851D01*
X122054649Y-81075493D01*
X121918007Y-80938851D01*
X121810649Y-80778178D01*
X121736699Y-80599647D01*
X121701300Y-80421682D01*
X121699000Y-80410121D01*
X121699000Y-80216879D01*
X121736699Y-80027354D01*
X121745375Y-80006408D01*
X121810649Y-79848822D01*
X121918007Y-79688149D01*
X122054649Y-79551507D01*
X122215322Y-79444149D01*
X122393853Y-79370199D01*
X122488617Y-79351349D01*
X122583379Y-79332500D01*
X122776621Y-79332500D01*
X122871383Y-79351349D01*
G37*
G36*
X186151318Y-76569153D02*
G01*
X186369885Y-76659687D01*
X186369887Y-76659688D01*
X186566593Y-76791122D01*
X186733878Y-76958407D01*
X186755175Y-76990281D01*
X186865313Y-77155115D01*
X186955847Y-77373682D01*
X187002000Y-77605710D01*
X187002000Y-77842290D01*
X186955847Y-78074318D01*
X186875123Y-78269201D01*
X186865312Y-78292887D01*
X186733878Y-78489593D01*
X186566593Y-78656878D01*
X186369887Y-78788312D01*
X186369886Y-78788313D01*
X186369885Y-78788313D01*
X186151318Y-78878847D01*
X185919290Y-78925000D01*
X185682710Y-78925000D01*
X185450682Y-78878847D01*
X185232115Y-78788313D01*
X185232114Y-78788313D01*
X185232113Y-78788312D01*
X185035407Y-78656878D01*
X184868122Y-78489593D01*
X184736688Y-78292887D01*
X184726877Y-78269201D01*
X184646153Y-78074318D01*
X184600000Y-77842290D01*
X184600000Y-77605710D01*
X184646153Y-77373682D01*
X184736687Y-77155115D01*
X184846825Y-76990281D01*
X184868122Y-76958407D01*
X185035407Y-76791122D01*
X185232113Y-76659688D01*
X185232115Y-76659687D01*
X185450682Y-76569153D01*
X185682710Y-76523000D01*
X185919290Y-76523000D01*
X186151318Y-76569153D01*
G37*
G36*
X191231318Y-76569153D02*
G01*
X191449885Y-76659687D01*
X191449887Y-76659688D01*
X191646593Y-76791122D01*
X191813878Y-76958407D01*
X191835175Y-76990281D01*
X191945313Y-77155115D01*
X192035847Y-77373682D01*
X192082000Y-77605710D01*
X192082000Y-77842290D01*
X192035847Y-78074318D01*
X191955123Y-78269201D01*
X191945312Y-78292887D01*
X191813878Y-78489593D01*
X191646593Y-78656878D01*
X191449887Y-78788312D01*
X191449886Y-78788313D01*
X191449885Y-78788313D01*
X191231318Y-78878847D01*
X190999290Y-78925000D01*
X190762710Y-78925000D01*
X190530682Y-78878847D01*
X190312115Y-78788313D01*
X190312114Y-78788313D01*
X190312113Y-78788312D01*
X190115407Y-78656878D01*
X189948122Y-78489593D01*
X189816688Y-78292887D01*
X189806877Y-78269201D01*
X189726153Y-78074318D01*
X189680000Y-77842290D01*
X189680000Y-77605710D01*
X189726153Y-77373682D01*
X189816687Y-77155115D01*
X189926825Y-76990281D01*
X189948122Y-76958407D01*
X190115407Y-76791122D01*
X190312113Y-76659688D01*
X190312115Y-76659687D01*
X190530682Y-76569153D01*
X190762710Y-76523000D01*
X190999290Y-76523000D01*
X191231318Y-76569153D01*
G37*
G36*
X180945549Y-76595116D02*
G01*
X181056734Y-76617232D01*
X181266203Y-76703997D01*
X181454720Y-76829960D01*
X181615040Y-76990280D01*
X181741003Y-77178797D01*
X181827768Y-77388266D01*
X181872000Y-77610636D01*
X181872000Y-77837364D01*
X181827768Y-78059734D01*
X181741003Y-78269203D01*
X181615040Y-78457720D01*
X181454720Y-78618040D01*
X181266203Y-78744003D01*
X181056734Y-78830768D01*
X180945549Y-78852884D01*
X180834365Y-78875000D01*
X180607635Y-78875000D01*
X180496451Y-78852884D01*
X180385266Y-78830768D01*
X180175797Y-78744003D01*
X179987280Y-78618040D01*
X179826960Y-78457720D01*
X179700997Y-78269203D01*
X179614232Y-78059734D01*
X179570000Y-77837364D01*
X179570000Y-77610636D01*
X179614232Y-77388266D01*
X179700997Y-77178797D01*
X179826960Y-76990280D01*
X179987280Y-76829960D01*
X180175797Y-76703997D01*
X180385266Y-76617232D01*
X180496451Y-76595116D01*
X180607635Y-76573000D01*
X180834365Y-76573000D01*
X180945549Y-76595116D01*
G37*
G36*
X112618318Y-74537153D02*
G01*
X112836885Y-74627687D01*
X112836887Y-74627688D01*
X113033593Y-74759122D01*
X113200878Y-74926407D01*
X113332312Y-75123113D01*
X113332313Y-75123115D01*
X113422847Y-75341682D01*
X113469000Y-75573710D01*
X113469000Y-75810290D01*
X113422847Y-76042318D01*
X113332313Y-76260885D01*
X113332312Y-76260887D01*
X113200878Y-76457593D01*
X113033593Y-76624878D01*
X112836887Y-76756312D01*
X112836886Y-76756313D01*
X112836885Y-76756313D01*
X112618318Y-76846847D01*
X112386290Y-76893000D01*
X112149710Y-76893000D01*
X111917682Y-76846847D01*
X111699115Y-76756313D01*
X111699114Y-76756313D01*
X111699113Y-76756312D01*
X111502407Y-76624878D01*
X111335122Y-76457593D01*
X111203688Y-76260887D01*
X111203687Y-76260885D01*
X111113153Y-76042318D01*
X111067000Y-75810290D01*
X111067000Y-75573710D01*
X111113153Y-75341682D01*
X111203687Y-75123115D01*
X111203688Y-75123113D01*
X111335122Y-74926407D01*
X111502407Y-74759122D01*
X111699113Y-74627688D01*
X111699115Y-74627687D01*
X111917682Y-74537153D01*
X112149710Y-74491000D01*
X112386290Y-74491000D01*
X112618318Y-74537153D01*
G37*
G36*
X167871383Y-71351349D02*
G01*
X167966147Y-71370199D01*
X168144678Y-71444149D01*
X168305351Y-71551507D01*
X168441993Y-71688149D01*
X168549351Y-71848822D01*
X168623301Y-72027353D01*
X168661000Y-72216880D01*
X168661000Y-72410120D01*
X168623301Y-72599647D01*
X168549351Y-72778178D01*
X168441993Y-72938851D01*
X168305351Y-73075493D01*
X168144678Y-73182851D01*
X167966147Y-73256801D01*
X167871383Y-73275651D01*
X167776621Y-73294500D01*
X167583379Y-73294500D01*
X167488617Y-73275651D01*
X167393853Y-73256801D01*
X167215322Y-73182851D01*
X167054649Y-73075493D01*
X166918007Y-72938851D01*
X166810649Y-72778178D01*
X166736699Y-72599647D01*
X166699000Y-72410120D01*
X166699000Y-72216880D01*
X166736699Y-72027353D01*
X166810649Y-71848822D01*
X166918007Y-71688149D01*
X167054649Y-71551507D01*
X167215322Y-71444149D01*
X167393853Y-71370199D01*
X167488617Y-71351349D01*
X167583379Y-71332500D01*
X167776621Y-71332500D01*
X167871383Y-71351349D01*
G37*
G36*
X189957059Y-71159860D02*
G01*
X190093732Y-71216472D01*
X190216735Y-71298660D01*
X190321340Y-71403265D01*
X190403528Y-71526268D01*
X190403529Y-71526270D01*
X190413983Y-71551508D01*
X190460140Y-71662941D01*
X190489000Y-71808033D01*
X190489000Y-71955967D01*
X190460140Y-72101059D01*
X190403528Y-72237732D01*
X190321340Y-72360735D01*
X190216735Y-72465340D01*
X190093732Y-72547528D01*
X190093731Y-72547529D01*
X190093730Y-72547529D01*
X189957059Y-72604140D01*
X189811968Y-72633000D01*
X189664032Y-72633000D01*
X189518941Y-72604140D01*
X189382270Y-72547529D01*
X189382269Y-72547529D01*
X189382268Y-72547528D01*
X189259265Y-72465340D01*
X189154660Y-72360735D01*
X189072472Y-72237732D01*
X189015860Y-72101059D01*
X188987000Y-71955967D01*
X188987000Y-71808033D01*
X189015860Y-71662941D01*
X189062017Y-71551508D01*
X189072471Y-71526270D01*
X189072472Y-71526268D01*
X189154660Y-71403265D01*
X189259265Y-71298660D01*
X189382268Y-71216472D01*
X189518941Y-71159860D01*
X189664032Y-71131000D01*
X189811968Y-71131000D01*
X189957059Y-71159860D01*
G37*
G36*
X187163059Y-71159860D02*
G01*
X187299732Y-71216472D01*
X187422735Y-71298660D01*
X187527340Y-71403265D01*
X187609528Y-71526268D01*
X187609529Y-71526270D01*
X187619983Y-71551508D01*
X187666140Y-71662941D01*
X187695000Y-71808033D01*
X187695000Y-71955967D01*
X187666140Y-72101059D01*
X187609528Y-72237732D01*
X187527340Y-72360735D01*
X187422735Y-72465340D01*
X187299732Y-72547528D01*
X187299731Y-72547529D01*
X187299730Y-72547529D01*
X187163059Y-72604140D01*
X187017968Y-72633000D01*
X186870032Y-72633000D01*
X186724941Y-72604140D01*
X186588270Y-72547529D01*
X186588269Y-72547529D01*
X186588268Y-72547528D01*
X186465265Y-72465340D01*
X186360660Y-72360735D01*
X186278472Y-72237732D01*
X186221860Y-72101059D01*
X186193000Y-71955967D01*
X186193000Y-71808033D01*
X186221860Y-71662941D01*
X186268017Y-71551508D01*
X186278471Y-71526270D01*
X186278472Y-71526268D01*
X186360660Y-71403265D01*
X186465265Y-71298660D01*
X186588268Y-71216472D01*
X186724941Y-71159860D01*
X186870032Y-71131000D01*
X187017968Y-71131000D01*
X187163059Y-71159860D01*
G37*
G36*
X192751059Y-71159860D02*
G01*
X192887732Y-71216472D01*
X193010735Y-71298660D01*
X193115340Y-71403265D01*
X193197528Y-71526268D01*
X193197529Y-71526270D01*
X193207983Y-71551508D01*
X193254140Y-71662941D01*
X193283000Y-71808033D01*
X193283000Y-71955967D01*
X193254140Y-72101059D01*
X193197528Y-72237732D01*
X193115340Y-72360735D01*
X193010735Y-72465340D01*
X192887732Y-72547528D01*
X192887731Y-72547529D01*
X192887730Y-72547529D01*
X192751059Y-72604140D01*
X192605968Y-72633000D01*
X192458032Y-72633000D01*
X192312941Y-72604140D01*
X192176270Y-72547529D01*
X192176269Y-72547529D01*
X192176268Y-72547528D01*
X192053265Y-72465340D01*
X191948660Y-72360735D01*
X191866472Y-72237732D01*
X191809860Y-72101059D01*
X191781000Y-71955967D01*
X191781000Y-71808033D01*
X191809860Y-71662941D01*
X191856017Y-71551508D01*
X191866471Y-71526270D01*
X191866472Y-71526268D01*
X191948660Y-71403265D01*
X192053265Y-71298660D01*
X192176268Y-71216472D01*
X192312941Y-71159860D01*
X192458032Y-71131000D01*
X192605968Y-71131000D01*
X192751059Y-71159860D01*
G37*
G36*
X187163059Y-66079860D02*
G01*
X187299732Y-66136472D01*
X187422735Y-66218660D01*
X187527340Y-66323265D01*
X187609528Y-66446268D01*
X187666140Y-66582941D01*
X187695000Y-66728033D01*
X187695000Y-66875967D01*
X187666140Y-67021059D01*
X187609528Y-67157732D01*
X187527340Y-67280735D01*
X187422735Y-67385340D01*
X187299732Y-67467528D01*
X187299731Y-67467529D01*
X187299730Y-67467529D01*
X187163059Y-67524140D01*
X187017968Y-67553000D01*
X186870032Y-67553000D01*
X186724941Y-67524140D01*
X186588270Y-67467529D01*
X186588269Y-67467529D01*
X186588268Y-67467528D01*
X186465265Y-67385340D01*
X186360660Y-67280735D01*
X186278472Y-67157732D01*
X186221860Y-67021059D01*
X186193000Y-66875967D01*
X186193000Y-66728033D01*
X186221860Y-66582941D01*
X186278472Y-66446268D01*
X186360660Y-66323265D01*
X186465265Y-66218660D01*
X186588268Y-66136472D01*
X186724941Y-66079860D01*
X186870032Y-66051000D01*
X187017968Y-66051000D01*
X187163059Y-66079860D01*
G37*
G36*
X189957059Y-66079860D02*
G01*
X190093732Y-66136472D01*
X190216735Y-66218660D01*
X190321340Y-66323265D01*
X190403528Y-66446268D01*
X190460140Y-66582941D01*
X190489000Y-66728033D01*
X190489000Y-66875967D01*
X190460140Y-67021059D01*
X190403528Y-67157732D01*
X190321340Y-67280735D01*
X190216735Y-67385340D01*
X190093732Y-67467528D01*
X190093731Y-67467529D01*
X190093730Y-67467529D01*
X189957059Y-67524140D01*
X189811968Y-67553000D01*
X189664032Y-67553000D01*
X189518941Y-67524140D01*
X189382270Y-67467529D01*
X189382269Y-67467529D01*
X189382268Y-67467528D01*
X189259265Y-67385340D01*
X189154660Y-67280735D01*
X189072472Y-67157732D01*
X189015860Y-67021059D01*
X188987000Y-66875967D01*
X188987000Y-66728033D01*
X189015860Y-66582941D01*
X189072472Y-66446268D01*
X189154660Y-66323265D01*
X189259265Y-66218660D01*
X189382268Y-66136472D01*
X189518941Y-66079860D01*
X189664032Y-66051000D01*
X189811968Y-66051000D01*
X189957059Y-66079860D01*
G37*
G36*
X192751059Y-66079860D02*
G01*
X192887732Y-66136472D01*
X193010735Y-66218660D01*
X193115340Y-66323265D01*
X193197528Y-66446268D01*
X193254140Y-66582941D01*
X193283000Y-66728033D01*
X193283000Y-66875967D01*
X193254140Y-67021059D01*
X193197528Y-67157732D01*
X193115340Y-67280735D01*
X193010735Y-67385340D01*
X192887732Y-67467528D01*
X192887731Y-67467529D01*
X192887730Y-67467529D01*
X192751059Y-67524140D01*
X192605968Y-67553000D01*
X192458032Y-67553000D01*
X192312941Y-67524140D01*
X192176270Y-67467529D01*
X192176269Y-67467529D01*
X192176268Y-67467528D01*
X192053265Y-67385340D01*
X191948660Y-67280735D01*
X191866472Y-67157732D01*
X191809860Y-67021059D01*
X191781000Y-66875967D01*
X191781000Y-66728033D01*
X191809860Y-66582941D01*
X191866472Y-66446268D01*
X191948660Y-66323265D01*
X192053265Y-66218660D01*
X192176268Y-66136472D01*
X192312941Y-66079860D01*
X192458032Y-66051000D01*
X192605968Y-66051000D01*
X192751059Y-66079860D01*
G37*
G36*
X181241000Y-66687000D02*
G01*
X179439000Y-66687000D01*
X179439000Y-64885000D01*
X181241000Y-64885000D01*
X181241000Y-66687000D01*
G37*
G36*
X180453512Y-62349927D02*
G01*
X180602812Y-62379624D01*
X180766784Y-62447544D01*
X180914354Y-62546147D01*
X181039853Y-62671646D01*
X181138456Y-62819216D01*
X181206376Y-62983188D01*
X181241000Y-63157259D01*
X181241000Y-63334741D01*
X181206376Y-63508812D01*
X181138456Y-63672784D01*
X181039853Y-63820354D01*
X180914354Y-63945853D01*
X180766784Y-64044456D01*
X180602812Y-64112376D01*
X180453512Y-64142073D01*
X180428742Y-64147000D01*
X180251258Y-64147000D01*
X180226488Y-64142073D01*
X180077188Y-64112376D01*
X179913216Y-64044456D01*
X179765646Y-63945853D01*
X179640147Y-63820354D01*
X179541544Y-63672784D01*
X179473624Y-63508812D01*
X179439000Y-63334741D01*
X179439000Y-63157259D01*
X179473624Y-62983188D01*
X179541544Y-62819216D01*
X179640147Y-62671646D01*
X179765646Y-62546147D01*
X179913216Y-62447544D01*
X180077188Y-62379624D01*
X180226488Y-62349927D01*
X180251258Y-62345000D01*
X180428742Y-62345000D01*
X180453512Y-62349927D01*
G37*
G36*
X113118866Y-58499527D02*
G01*
X113302501Y-58536054D01*
X113648461Y-58679356D01*
X113959817Y-58887397D01*
X114224603Y-59152183D01*
X114432644Y-59463539D01*
X114571865Y-59799646D01*
X114575946Y-59809500D01*
X114649000Y-60176767D01*
X114649000Y-60551233D01*
X114575946Y-60918501D01*
X114432644Y-61264461D01*
X114224603Y-61575817D01*
X113959817Y-61840603D01*
X113648461Y-62048644D01*
X113302501Y-62191946D01*
X112935233Y-62265000D01*
X112560767Y-62265000D01*
X112193499Y-62191946D01*
X111847539Y-62048644D01*
X111536183Y-61840603D01*
X111271397Y-61575817D01*
X111063356Y-61264461D01*
X110920054Y-60918501D01*
X110847000Y-60551233D01*
X110847000Y-60176767D01*
X110920054Y-59809500D01*
X110924136Y-59799646D01*
X111063356Y-59463539D01*
X111271397Y-59152183D01*
X111536183Y-58887397D01*
X111847539Y-58679356D01*
X112193499Y-58536054D01*
X112377134Y-58499527D01*
X112560767Y-58463000D01*
X112935233Y-58463000D01*
X113118866Y-58499527D01*
G37*
G36*
X189118866Y-58499527D02*
G01*
X189302501Y-58536054D01*
X189648461Y-58679356D01*
X189959817Y-58887397D01*
X190224603Y-59152183D01*
X190432644Y-59463539D01*
X190571865Y-59799646D01*
X190575946Y-59809500D01*
X190649000Y-60176767D01*
X190649000Y-60551233D01*
X190575946Y-60918501D01*
X190432644Y-61264461D01*
X190224603Y-61575817D01*
X189959817Y-61840603D01*
X189648461Y-62048644D01*
X189302501Y-62191946D01*
X188935233Y-62265000D01*
X188560767Y-62265000D01*
X188193499Y-62191946D01*
X187847539Y-62048644D01*
X187536183Y-61840603D01*
X187271397Y-61575817D01*
X187063356Y-61264461D01*
X186920054Y-60918501D01*
X186847000Y-60551233D01*
X186847000Y-60176767D01*
X186920054Y-59809500D01*
X186924136Y-59799646D01*
X187063356Y-59463539D01*
X187271397Y-59152183D01*
X187536183Y-58887397D01*
X187847539Y-58679356D01*
X188193499Y-58536054D01*
X188377134Y-58499527D01*
X188560767Y-58463000D01*
X188935233Y-58463000D01*
X189118866Y-58499527D01*
G37*
G36*
X180451360Y-59809499D02*
G01*
X180602812Y-59839624D01*
X180766784Y-59907544D01*
X180914354Y-60006147D01*
X181039853Y-60131646D01*
X181138456Y-60279216D01*
X181206376Y-60443188D01*
X181241000Y-60617259D01*
X181241000Y-60794741D01*
X181206376Y-60968812D01*
X181138456Y-61132784D01*
X181039853Y-61280354D01*
X180914354Y-61405853D01*
X180766784Y-61504456D01*
X180602812Y-61572376D01*
X180453512Y-61602073D01*
X180428742Y-61607000D01*
X180251258Y-61607000D01*
X180226488Y-61602073D01*
X180077188Y-61572376D01*
X179913216Y-61504456D01*
X179765646Y-61405853D01*
X179640147Y-61280354D01*
X179541544Y-61132784D01*
X179473624Y-60968812D01*
X179439000Y-60794741D01*
X179439000Y-60617259D01*
X179473624Y-60443188D01*
X179541544Y-60279216D01*
X179640147Y-60131646D01*
X179765646Y-60006147D01*
X179913216Y-59907544D01*
X180077188Y-59839624D01*
X180228640Y-59809499D01*
X180251258Y-59805000D01*
X180428742Y-59805000D01*
X180451360Y-59809499D01*
G37*
G36*
X122871383Y-58551349D02*
G01*
X122966147Y-58570199D01*
X123144678Y-58644149D01*
X123305351Y-58751507D01*
X123441993Y-58888149D01*
X123549351Y-59048822D01*
X123623301Y-59227353D01*
X123661000Y-59416880D01*
X123661000Y-59610120D01*
X123623301Y-59799647D01*
X123549351Y-59978178D01*
X123441993Y-60138851D01*
X123305351Y-60275493D01*
X123144678Y-60382851D01*
X122966147Y-60456801D01*
X122871384Y-60475650D01*
X122776621Y-60494500D01*
X122583379Y-60494500D01*
X122488616Y-60475650D01*
X122393853Y-60456801D01*
X122215322Y-60382851D01*
X122054649Y-60275493D01*
X121918007Y-60138851D01*
X121810649Y-59978178D01*
X121736699Y-59799647D01*
X121699000Y-59610120D01*
X121699000Y-59416880D01*
X121736699Y-59227353D01*
X121810649Y-59048822D01*
X121918007Y-58888149D01*
X122054649Y-58751507D01*
X122215322Y-58644149D01*
X122393853Y-58570199D01*
X122488617Y-58551349D01*
X122583379Y-58532500D01*
X122776621Y-58532500D01*
X122871383Y-58551349D01*
G37*
G36*
X180453512Y-57269927D02*
G01*
X180602812Y-57299624D01*
X180766784Y-57367544D01*
X180914354Y-57466147D01*
X181039853Y-57591646D01*
X181138456Y-57739216D01*
X181206376Y-57903188D01*
X181241000Y-58077259D01*
X181241000Y-58254741D01*
X181206376Y-58428812D01*
X181138456Y-58592784D01*
X181039853Y-58740354D01*
X180914354Y-58865853D01*
X180766784Y-58964456D01*
X180602812Y-59032376D01*
X180453512Y-59062073D01*
X180428742Y-59067000D01*
X180251258Y-59067000D01*
X180226488Y-59062073D01*
X180077188Y-59032376D01*
X179913216Y-58964456D01*
X179765646Y-58865853D01*
X179640147Y-58740354D01*
X179541544Y-58592784D01*
X179473624Y-58428812D01*
X179439000Y-58254741D01*
X179439000Y-58077259D01*
X179473624Y-57903188D01*
X179541544Y-57739216D01*
X179640147Y-57591646D01*
X179765646Y-57466147D01*
X179913216Y-57367544D01*
X180077188Y-57299624D01*
X180226488Y-57269927D01*
X180251258Y-57265000D01*
X180428742Y-57265000D01*
X180453512Y-57269927D01*
G37*
M02*
