G04 #@! TF.GenerationSoftware,KiCad,Pcbnew,(5.1.5)-3*
G04 #@! TF.CreationDate,2020-06-25T17:10:35+03:00*
G04 #@! TF.ProjectId,genv01_2,67656e76-3031-45f3-922e-6b696361645f,rev?*
G04 #@! TF.SameCoordinates,Original*
G04 #@! TF.FileFunction,Legend,Bot*
G04 #@! TF.FilePolarity,Positive*
%FSLAX46Y46*%
G04 Gerber Fmt 4.6, Leading zero omitted, Abs format (unit mm)*
G04 Created by KiCad (PCBNEW (5.1.5)-3) date 2020-06-25 17:10:35*
%MOMM*%
%LPD*%
G04 APERTURE LIST*
G04 #@! TA.AperFunction,Profile*
%ADD10C,0.050000*%
G04 #@! TD*
%ADD11C,0.150000*%
G04 APERTURE END LIST*
D10*
X110744000Y-54864000D02*
X190754000Y-54864000D01*
X110744000Y-133858000D02*
G75*
G02X107188000Y-130302000I0J3556000D01*
G01*
X107188000Y-130302000D02*
X107188000Y-116332000D01*
X107188000Y-58420000D02*
G75*
G02X110744000Y-54864000I3556000J0D01*
G01*
X194310000Y-72390000D02*
X194310000Y-58420000D01*
X105918000Y-115062000D02*
G75*
G02X101346000Y-110490000I0J4572000D01*
G01*
X200152000Y-110490000D02*
G75*
G02X195580000Y-115062000I-4572000J0D01*
G01*
X190754000Y-54864000D02*
G75*
G02X194310000Y-58420000I0J-3556000D01*
G01*
X194310000Y-116332000D02*
X194310000Y-130302000D01*
X190754000Y-133858000D02*
X110744000Y-133858000D01*
X105918000Y-115062000D02*
G75*
G02X107188000Y-116332000I0J-1270000D01*
G01*
X194310000Y-130302000D02*
G75*
G02X190754000Y-133858000I-3556000J0D01*
G01*
X107188000Y-72390000D02*
X107188000Y-58420000D01*
X107188000Y-72390000D02*
G75*
G02X105918000Y-73660000I-1270000J0D01*
G01*
X195580000Y-73660000D02*
G75*
G02X194310000Y-72390000I0J1270000D01*
G01*
X194310000Y-116332000D02*
G75*
G02X195580000Y-115062000I1270000J0D01*
G01*
X101346000Y-78232000D02*
G75*
G02X105918000Y-73660000I4572000J0D01*
G01*
X200152000Y-78232000D02*
X200152000Y-110490000D01*
X101346000Y-78232000D02*
X101346000Y-110490000D01*
X195580000Y-73660000D02*
G75*
G02X200152000Y-78232000I0J-4572000D01*
G01*
D11*
X185015142Y-98385333D02*
X185062761Y-98337714D01*
X185110380Y-98194857D01*
X185110380Y-98099619D01*
X185062761Y-97956761D01*
X184967523Y-97861523D01*
X184872285Y-97813904D01*
X184681809Y-97766285D01*
X184538952Y-97766285D01*
X184348476Y-97813904D01*
X184253238Y-97861523D01*
X184158000Y-97956761D01*
X184110380Y-98099619D01*
X184110380Y-98194857D01*
X184158000Y-98337714D01*
X184205619Y-98385333D01*
X184110380Y-99242476D02*
X184110380Y-99052000D01*
X184158000Y-98956761D01*
X184205619Y-98909142D01*
X184348476Y-98813904D01*
X184538952Y-98766285D01*
X184919904Y-98766285D01*
X185015142Y-98813904D01*
X185062761Y-98861523D01*
X185110380Y-98956761D01*
X185110380Y-99147238D01*
X185062761Y-99242476D01*
X185015142Y-99290095D01*
X184919904Y-99337714D01*
X184681809Y-99337714D01*
X184586571Y-99290095D01*
X184538952Y-99242476D01*
X184491333Y-99147238D01*
X184491333Y-98956761D01*
X184538952Y-98861523D01*
X184586571Y-98813904D01*
X184681809Y-98766285D01*
X108259619Y-95670666D02*
X108735809Y-96004000D01*
X108259619Y-96242095D02*
X109259619Y-96242095D01*
X109259619Y-95861142D01*
X109212000Y-95765904D01*
X109164380Y-95718285D01*
X109069142Y-95670666D01*
X108926285Y-95670666D01*
X108831047Y-95718285D01*
X108783428Y-95765904D01*
X108735809Y-95861142D01*
X108735809Y-96242095D01*
X108259619Y-94718285D02*
X108259619Y-95289714D01*
X108259619Y-95004000D02*
X109259619Y-95004000D01*
X109116761Y-95099238D01*
X109021523Y-95194476D01*
X108973904Y-95289714D01*
X191174666Y-80875142D02*
X191222285Y-80922761D01*
X191365142Y-80970380D01*
X191460380Y-80970380D01*
X191603238Y-80922761D01*
X191698476Y-80827523D01*
X191746095Y-80732285D01*
X191793714Y-80541809D01*
X191793714Y-80398952D01*
X191746095Y-80208476D01*
X191698476Y-80113238D01*
X191603238Y-80018000D01*
X191460380Y-79970380D01*
X191365142Y-79970380D01*
X191222285Y-80018000D01*
X191174666Y-80065619D01*
X190222285Y-80970380D02*
X190793714Y-80970380D01*
X190508000Y-80970380D02*
X190508000Y-79970380D01*
X190603238Y-80113238D01*
X190698476Y-80208476D01*
X190793714Y-80256095D01*
X190666666Y-109323142D02*
X190714285Y-109370761D01*
X190857142Y-109418380D01*
X190952380Y-109418380D01*
X191095238Y-109370761D01*
X191190476Y-109275523D01*
X191238095Y-109180285D01*
X191285714Y-108989809D01*
X191285714Y-108846952D01*
X191238095Y-108656476D01*
X191190476Y-108561238D01*
X191095238Y-108466000D01*
X190952380Y-108418380D01*
X190857142Y-108418380D01*
X190714285Y-108466000D01*
X190666666Y-108513619D01*
X190190476Y-109418380D02*
X190000000Y-109418380D01*
X189904761Y-109370761D01*
X189857142Y-109323142D01*
X189761904Y-109180285D01*
X189714285Y-108989809D01*
X189714285Y-108608857D01*
X189761904Y-108513619D01*
X189809523Y-108466000D01*
X189904761Y-108418380D01*
X190095238Y-108418380D01*
X190190476Y-108466000D01*
X190238095Y-108513619D01*
X190285714Y-108608857D01*
X190285714Y-108846952D01*
X190238095Y-108942190D01*
X190190476Y-108989809D01*
X190095238Y-109037428D01*
X189904761Y-109037428D01*
X189809523Y-108989809D01*
X189761904Y-108942190D01*
X189714285Y-108846952D01*
X185015142Y-88225333D02*
X185062761Y-88177714D01*
X185110380Y-88034857D01*
X185110380Y-87939619D01*
X185062761Y-87796761D01*
X184967523Y-87701523D01*
X184872285Y-87653904D01*
X184681809Y-87606285D01*
X184538952Y-87606285D01*
X184348476Y-87653904D01*
X184253238Y-87701523D01*
X184158000Y-87796761D01*
X184110380Y-87939619D01*
X184110380Y-88034857D01*
X184158000Y-88177714D01*
X184205619Y-88225333D01*
X184443714Y-89082476D02*
X185110380Y-89082476D01*
X184062761Y-88844380D02*
X184777047Y-88606285D01*
X184777047Y-89225333D01*
X185015142Y-93559333D02*
X185062761Y-93511714D01*
X185110380Y-93368857D01*
X185110380Y-93273619D01*
X185062761Y-93130761D01*
X184967523Y-93035523D01*
X184872285Y-92987904D01*
X184681809Y-92940285D01*
X184538952Y-92940285D01*
X184348476Y-92987904D01*
X184253238Y-93035523D01*
X184158000Y-93130761D01*
X184110380Y-93273619D01*
X184110380Y-93368857D01*
X184158000Y-93511714D01*
X184205619Y-93559333D01*
X184110380Y-94464095D02*
X184110380Y-93987904D01*
X184586571Y-93940285D01*
X184538952Y-93987904D01*
X184491333Y-94083142D01*
X184491333Y-94321238D01*
X184538952Y-94416476D01*
X184586571Y-94464095D01*
X184681809Y-94511714D01*
X184919904Y-94511714D01*
X185015142Y-94464095D01*
X185062761Y-94416476D01*
X185110380Y-94321238D01*
X185110380Y-94083142D01*
X185062761Y-93987904D01*
X185015142Y-93940285D01*
X186094666Y-80875142D02*
X186142285Y-80922761D01*
X186285142Y-80970380D01*
X186380380Y-80970380D01*
X186523238Y-80922761D01*
X186618476Y-80827523D01*
X186666095Y-80732285D01*
X186713714Y-80541809D01*
X186713714Y-80398952D01*
X186666095Y-80208476D01*
X186618476Y-80113238D01*
X186523238Y-80018000D01*
X186380380Y-79970380D01*
X186285142Y-79970380D01*
X186142285Y-80018000D01*
X186094666Y-80065619D01*
X185713714Y-80065619D02*
X185666095Y-80018000D01*
X185570857Y-79970380D01*
X185332761Y-79970380D01*
X185237523Y-80018000D01*
X185189904Y-80065619D01*
X185142285Y-80160857D01*
X185142285Y-80256095D01*
X185189904Y-80398952D01*
X185761333Y-80970380D01*
X185142285Y-80970380D01*
X108259619Y-112942666D02*
X108735809Y-113276000D01*
X108259619Y-113514095D02*
X109259619Y-113514095D01*
X109259619Y-113133142D01*
X109212000Y-113037904D01*
X109164380Y-112990285D01*
X109069142Y-112942666D01*
X108926285Y-112942666D01*
X108831047Y-112990285D01*
X108783428Y-113037904D01*
X108735809Y-113133142D01*
X108735809Y-113514095D01*
X108926285Y-112085523D02*
X108259619Y-112085523D01*
X109307238Y-112323619D02*
X108592952Y-112561714D01*
X108592952Y-111942666D01*
X180760666Y-80875142D02*
X180808285Y-80922761D01*
X180951142Y-80970380D01*
X181046380Y-80970380D01*
X181189238Y-80922761D01*
X181284476Y-80827523D01*
X181332095Y-80732285D01*
X181379714Y-80541809D01*
X181379714Y-80398952D01*
X181332095Y-80208476D01*
X181284476Y-80113238D01*
X181189238Y-80018000D01*
X181046380Y-79970380D01*
X180951142Y-79970380D01*
X180808285Y-80018000D01*
X180760666Y-80065619D01*
X180427333Y-79970380D02*
X179808285Y-79970380D01*
X180141619Y-80351333D01*
X179998761Y-80351333D01*
X179903523Y-80398952D01*
X179855904Y-80446571D01*
X179808285Y-80541809D01*
X179808285Y-80779904D01*
X179855904Y-80875142D01*
X179903523Y-80922761D01*
X179998761Y-80970380D01*
X180284476Y-80970380D01*
X180379714Y-80922761D01*
X180427333Y-80875142D01*
X108259619Y-76430095D02*
X109259619Y-76430095D01*
X109259619Y-76049142D01*
X109212000Y-75953904D01*
X109164380Y-75906285D01*
X109069142Y-75858666D01*
X108926285Y-75858666D01*
X108831047Y-75906285D01*
X108783428Y-75953904D01*
X108735809Y-76049142D01*
X108735809Y-76430095D01*
X108259619Y-74906285D02*
X108259619Y-75477714D01*
X108259619Y-75192000D02*
X109259619Y-75192000D01*
X109116761Y-75287238D01*
X109021523Y-75382476D01*
X108973904Y-75477714D01*
X108259619Y-81510095D02*
X109259619Y-81510095D01*
X109259619Y-81129142D01*
X109212000Y-81033904D01*
X109164380Y-80986285D01*
X109069142Y-80938666D01*
X108926285Y-80938666D01*
X108831047Y-80986285D01*
X108783428Y-81033904D01*
X108735809Y-81129142D01*
X108735809Y-81510095D01*
X109164380Y-80557714D02*
X109212000Y-80510095D01*
X109259619Y-80414857D01*
X109259619Y-80176761D01*
X109212000Y-80081523D01*
X109164380Y-80033904D01*
X109069142Y-79986285D01*
X108973904Y-79986285D01*
X108831047Y-80033904D01*
X108259619Y-80605333D01*
X108259619Y-79986285D01*
X185840666Y-109323142D02*
X185888285Y-109370761D01*
X186031142Y-109418380D01*
X186126380Y-109418380D01*
X186269238Y-109370761D01*
X186364476Y-109275523D01*
X186412095Y-109180285D01*
X186459714Y-108989809D01*
X186459714Y-108846952D01*
X186412095Y-108656476D01*
X186364476Y-108561238D01*
X186269238Y-108466000D01*
X186126380Y-108418380D01*
X186031142Y-108418380D01*
X185888285Y-108466000D01*
X185840666Y-108513619D01*
X185269238Y-108846952D02*
X185364476Y-108799333D01*
X185412095Y-108751714D01*
X185459714Y-108656476D01*
X185459714Y-108608857D01*
X185412095Y-108513619D01*
X185364476Y-108466000D01*
X185269238Y-108418380D01*
X185078761Y-108418380D01*
X184983523Y-108466000D01*
X184935904Y-108513619D01*
X184888285Y-108608857D01*
X184888285Y-108656476D01*
X184935904Y-108751714D01*
X184983523Y-108799333D01*
X185078761Y-108846952D01*
X185269238Y-108846952D01*
X185364476Y-108894571D01*
X185412095Y-108942190D01*
X185459714Y-109037428D01*
X185459714Y-109227904D01*
X185412095Y-109323142D01*
X185364476Y-109370761D01*
X185269238Y-109418380D01*
X185078761Y-109418380D01*
X184983523Y-109370761D01*
X184935904Y-109323142D01*
X184888285Y-109227904D01*
X184888285Y-109037428D01*
X184935904Y-108942190D01*
X184983523Y-108894571D01*
X185078761Y-108846952D01*
X108259619Y-108116666D02*
X108735809Y-108450000D01*
X108259619Y-108688095D02*
X109259619Y-108688095D01*
X109259619Y-108307142D01*
X109212000Y-108211904D01*
X109164380Y-108164285D01*
X109069142Y-108116666D01*
X108926285Y-108116666D01*
X108831047Y-108164285D01*
X108783428Y-108211904D01*
X108735809Y-108307142D01*
X108735809Y-108688095D01*
X109259619Y-107783333D02*
X109259619Y-107164285D01*
X108878666Y-107497619D01*
X108878666Y-107354761D01*
X108831047Y-107259523D01*
X108783428Y-107211904D01*
X108688190Y-107164285D01*
X108450095Y-107164285D01*
X108354857Y-107211904D01*
X108307238Y-107259523D01*
X108259619Y-107354761D01*
X108259619Y-107640476D01*
X108307238Y-107735714D01*
X108354857Y-107783333D01*
X180760666Y-109323142D02*
X180808285Y-109370761D01*
X180951142Y-109418380D01*
X181046380Y-109418380D01*
X181189238Y-109370761D01*
X181284476Y-109275523D01*
X181332095Y-109180285D01*
X181379714Y-108989809D01*
X181379714Y-108846952D01*
X181332095Y-108656476D01*
X181284476Y-108561238D01*
X181189238Y-108466000D01*
X181046380Y-108418380D01*
X180951142Y-108418380D01*
X180808285Y-108466000D01*
X180760666Y-108513619D01*
X180427333Y-108418380D02*
X179760666Y-108418380D01*
X180189238Y-109418380D01*
X108259619Y-100750666D02*
X108735809Y-101084000D01*
X108259619Y-101322095D02*
X109259619Y-101322095D01*
X109259619Y-100941142D01*
X109212000Y-100845904D01*
X109164380Y-100798285D01*
X109069142Y-100750666D01*
X108926285Y-100750666D01*
X108831047Y-100798285D01*
X108783428Y-100845904D01*
X108735809Y-100941142D01*
X108735809Y-101322095D01*
X109164380Y-100369714D02*
X109212000Y-100322095D01*
X109259619Y-100226857D01*
X109259619Y-99988761D01*
X109212000Y-99893523D01*
X109164380Y-99845904D01*
X109069142Y-99798285D01*
X108973904Y-99798285D01*
X108831047Y-99845904D01*
X108259619Y-100417333D01*
X108259619Y-99798285D01*
M02*
